<?xml version="1.0" encoding="UTF-8"?>
<!DOCTYPE svg PUBLIC "-//W3C//DTD SVG 1.1//EN" "http://www.w3.org/Graphics/SVG/1.1/DTD/svg11.dtd">
<svg xmlns="http://www.w3.org/2000/svg" version="1.1" width="378px" height="156px" style="shape-rendering:geometricPrecision; text-rendering:geometricPrecision; image-rendering:optimizeQuality; fill-rule:evenodd; clip-rule:evenodd" xmlns:xlink="http://www.w3.org/1999/xlink">
<g><path style="opacity:1" fill="#fdfdfd" d="M -0.5,-0.5 C 125.5,-0.5 251.5,-0.5 377.5,-0.5C 377.5,51.5 377.5,103.5 377.5,155.5C 251.5,155.5 125.5,155.5 -0.5,155.5C -0.5,103.5 -0.5,51.5 -0.5,-0.5 Z"/></g>
<g><path style="opacity:1" fill="#888687" d="M 116.5,8.5 C 121.833,8.5 127.167,8.5 132.5,8.5C 132.5,53.5 132.5,98.5 132.5,143.5C 127.167,143.5 121.833,143.5 116.5,143.5C 116.5,98.5 116.5,53.5 116.5,8.5 Z"/></g>
<g><path style="opacity:1" fill="#211d1e" d="M 117.5,9.5 C 122.167,9.5 126.833,9.5 131.5,9.5C 131.5,53.8333 131.5,98.1667 131.5,142.5C 126.833,142.5 122.167,142.5 117.5,142.5C 117.5,98.1667 117.5,53.8333 117.5,9.5 Z"/></g>
<g><path style="opacity:1" fill="#231f20" d="M 58.5,45.5 C 66.5533,45.2252 74.5533,45.7252 82.5,47C 91.4877,48.6568 97.321,53.8235 100,62.5C 100.667,83.5 100.667,104.5 100,125.5C 98.1119,135.208 92.2786,141.042 82.5,143C 73.1667,145 63.8333,145 54.5,143C 42.2166,138.938 36.5499,130.438 37.5,117.5C 36.7333,106.529 41.0666,98.3627 50.5,93C 60.9627,89.7344 71.2961,86.0677 81.5,82C 85.7551,76.7198 86.5885,70.8864 84,64.5C 75.9434,57.9785 67.1101,56.8119 57.5,61C 54.3475,63.8046 52.6808,67.3046 52.5,71.5C 47.5,71.5 42.5,71.5 37.5,71.5C 36.4044,62.1948 39.7378,55.0281 47.5,50C 51.2129,48.3371 54.8796,46.8371 58.5,45.5 Z"/></g>
<g><path style="opacity:1" fill="#272425" d="M 248.5,45.5 C 255.167,45.5 261.833,45.5 268.5,45.5C 268.129,49.6491 267.129,53.6491 265.5,57.5C 256.973,56.7845 249.807,59.4512 244,65.5C 243.5,91.1645 243.333,116.831 243.5,142.5C 238.167,142.5 232.833,142.5 227.5,142.5C 227.333,116.165 227.5,89.8312 228,63.5C 228.889,58.9441 231.056,55.1108 234.5,52C 238.877,48.9748 243.544,46.8081 248.5,45.5 Z"/></g>
<g><path style="opacity:1" fill="#f7f7f7" d="M 84.5,94.5 C 85.6569,102.99 85.8236,111.657 85,120.5C 84.285,126.215 81.1184,129.715 75.5,131C 69.2757,132.061 63.2757,131.394 57.5,129C 50.096,119.971 51.096,111.971 60.5,105C 67.8333,102.333 75.1667,99.6667 82.5,97C 83.3805,96.2917 84.0472,95.4584 84.5,94.5 Z"/></g>
<g><path style="opacity:1" fill="#231f20" d="M 298.5,45.5 C 308.766,44.6778 318.766,45.8444 328.5,49C 333,51.5 336.5,55 339,59.5C 339.667,82.8333 339.667,106.167 339,129.5C 334.5,138.175 327.333,143.008 317.5,144C 283.004,147.854 270.837,133.354 281,100.5C 283.592,97.2379 286.759,94.7379 290.5,93C 300.38,90.2623 310.047,86.9289 319.5,83C 321.378,81.4571 322.878,79.6238 324,77.5C 327.132,67.3438 323.632,61.1772 313.5,59C 307.936,57.99 302.602,58.6567 297.5,61C 294.347,63.8046 292.681,67.3046 292.5,71.5C 287.5,71.5 282.5,71.5 277.5,71.5C 276.149,63.0459 278.816,56.2126 285.5,51C 289.893,49.0441 294.226,47.2108 298.5,45.5 Z"/></g>
<g><path style="opacity:1" fill="#7d7a7b" d="M 323.5,95.5 C 323.56,94.9569 323.893,94.6236 324.5,94.5C 325.821,102.991 325.821,111.324 324.5,119.5C 324.826,111.316 324.492,103.316 323.5,95.5 Z"/></g>
<g><path style="opacity:1" fill="#f9f9f9" d="M 323.5,95.5 C 324.492,103.316 324.826,111.316 324.5,119.5C 324.544,126.234 321.211,130.067 314.5,131C 298.86,134.349 291.693,128.182 293,112.5C 294.458,110.04 296.291,107.873 298.5,106C 307.171,102.954 315.505,99.4538 323.5,95.5 Z"/></g>
<g><path style="opacity:1" fill="#252122" d="M 148.5,46.5 C 153.5,46.5 158.5,46.5 163.5,46.5C 163.333,71.1689 163.5,95.8356 164,120.5C 165.993,128.429 171.16,131.762 179.5,130.5C 187.279,131.529 192.779,128.529 196,121.5C 196.5,96.5022 196.667,71.5022 196.5,46.5C 201.5,46.5 206.5,46.5 211.5,46.5C 211.667,72.8354 211.5,99.1688 211,125.5C 208.306,135.525 201.806,141.359 191.5,143C 178.265,146.111 165.932,144.111 154.5,137C 152.877,134.92 151.377,132.754 150,130.5C 148.534,102.551 148.034,74.5506 148.5,46.5 Z"/></g>
</svg>
