<?xml version="1.0" encoding="UTF-8"?>
<!DOCTYPE svg PUBLIC "-//W3C//DTD SVG 1.1//EN" "http://www.w3.org/Graphics/SVG/1.1/DTD/svg11.dtd">
<svg xmlns="http://www.w3.org/2000/svg" version="1.1" width="500px" height="225px" style="shape-rendering:geometricPrecision; text-rendering:geometricPrecision; image-rendering:optimizeQuality; fill-rule:evenodd; clip-rule:evenodd" xmlns:xlink="http://www.w3.org/1999/xlink">
<g><path style="opacity:0.749" fill="#5e676a" d="M 214.5,103.5 C 213.502,69.6708 213.168,35.6708 213.5,1.5C 209.833,1.5 206.167,1.5 202.5,1.5C 202.5,37.8333 202.5,74.1667 202.5,110.5C 201.502,74.0038 201.168,37.3371 201.5,0.5C 205.833,0.5 210.167,0.5 214.5,0.5C 214.5,34.8333 214.5,69.1667 214.5,103.5 Z"/></g>
<g><path style="opacity:0.999" fill="#2d383e" d="M 214.5,103.5 C 215.219,110.456 218.886,114.956 225.5,117C 239.167,117.667 252.833,117.667 266.5,117C 267.745,116.209 269.078,115.709 270.5,115.5C 273.167,114.833 274.833,113.167 275.5,110.5C 277.507,96.5859 278.007,82.5859 277,68.5C 276.208,61.2109 272.375,56.5442 265.5,54.5C 250.676,53.5039 235.676,53.1706 220.5,53.5C 220.5,49.5 220.5,45.5 220.5,41.5C 236.833,41.5 253.167,41.5 269.5,41.5C 281.504,43.3387 288.338,50.3387 290,62.5C 290.667,78.1667 290.667,93.8333 290,109.5C 287.918,122.914 280.085,130.081 266.5,131C 252.5,131.667 238.5,131.667 224.5,131C 211.82,129.817 204.486,122.984 202.5,110.5C 202.5,74.1667 202.5,37.8333 202.5,1.5C 206.167,1.5 209.833,1.5 213.5,1.5C 213.168,35.6708 213.502,69.6708 214.5,103.5 Z"/></g>
<g><path style="opacity:0.502" fill="#a3a8aa" d="M 269.5,41.5 C 253.167,41.5 236.833,41.5 220.5,41.5C 220.5,45.5 220.5,49.5 220.5,53.5C 235.676,53.1706 250.676,53.5039 265.5,54.5C 250.167,54.5 234.833,54.5 219.5,54.5C 219.5,49.8333 219.5,45.1667 219.5,40.5C 236.342,40.1702 253.008,40.5035 269.5,41.5 Z"/></g>
<g><path style="opacity:0.999" fill="#354146" d="M -0.5,107.5 C -0.5,93.1667 -0.5,78.8333 -0.5,64.5C 0.620282,51.5403 7.62028,43.707 20.5,41C 37.4967,40.5001 54.4967,40.3334 71.5,40.5C 71.5,45.1667 71.5,49.8333 71.5,54.5C 54.4303,54.0428 37.4303,54.5428 20.5,56C 17.5665,58.2643 15.3999,61.0976 14,64.5C 13.3333,78.5 13.3333,92.5 14,106.5C 15.5,112 19,115.5 24.5,117C 40.1631,117.5 55.8298,117.667 71.5,117.5C 71.5,122.167 71.5,126.833 71.5,131.5C 53.4584,131.916 35.4584,131.416 17.5,130C 6.36755,126.553 0.367554,119.053 -0.5,107.5 Z"/></g>
<g><path style="opacity:0.999" fill="#2c383e" d="M 89.5,41.5 C 93.5,41.5 97.5,41.5 101.5,41.5C 101.169,62.6733 101.503,83.6733 102.5,104.5C 103.569,109.481 106.236,113.314 110.5,116C 118.093,117.116 125.759,117.616 133.5,117.5C 141.241,117.616 148.907,117.116 156.5,116C 161.061,113.044 163.728,108.878 164.5,103.5C 165.497,83.0067 165.831,62.3401 165.5,41.5C 169.5,41.5 173.5,41.5 177.5,41.5C 177.961,66.2185 177.461,90.8852 176,115.5C 172.022,125.742 164.522,130.908 153.5,131C 140.167,131.667 126.833,131.667 113.5,131C 102.478,130.908 94.9781,125.742 91,115.5C 89.5386,90.8852 89.0386,66.2185 89.5,41.5 Z"/></g>
<g><path style="opacity:0.502" fill="#909699" d="M 89.5,41.5 C 93.6344,40.5151 97.9677,40.1818 102.5,40.5C 102.5,61.8333 102.5,83.1667 102.5,104.5C 101.503,83.6733 101.169,62.6733 101.5,41.5C 97.5,41.5 93.5,41.5 89.5,41.5 Z"/></g>
<g><path style="opacity:0.502" fill="#92989b" d="M 177.5,41.5 C 173.5,41.5 169.5,41.5 165.5,41.5C 165.831,62.3401 165.497,83.0067 164.5,103.5C 164.5,82.5 164.5,61.5 164.5,40.5C 169.032,40.1818 173.366,40.5151 177.5,41.5 Z"/></g>
<g><path style="opacity:0.999" fill="#343f45" d="M 315.5,52.5 C 316.906,52.0269 317.573,51.0269 317.5,49.5C 321.242,44.624 326.242,41.7906 332.5,41C 347.833,40.3333 363.167,40.3333 378.5,41C 391.885,43.0547 399.052,50.8881 400,64.5C 400.667,78.5 400.667,92.5 400,106.5C 398.5,121.333 390.333,129.5 375.5,131C 360.131,131.879 344.797,131.546 329.5,130C 318.987,127.154 313.153,120.321 312,109.5C 311.333,93.8333 311.333,78.1667 312,62.5C 312.302,58.7549 313.469,55.4216 315.5,52.5 Z M 335.5,54.5 C 348.837,54.3334 362.171,54.5001 375.5,55C 381.41,56.5787 384.91,60.412 386,66.5C 386.667,79.1667 386.667,91.8333 386,104.5C 384.949,111.218 381.116,115.384 374.5,117C 361.833,117.667 349.167,117.667 336.5,117C 331,115.5 327.5,112 326,106.5C 325.333,92.8333 325.333,79.1667 326,65.5C 327.599,60.406 330.766,56.7393 335.5,54.5 Z"/></g>
<g><path style="opacity:0.999" fill="#313c42" d="M 499.5,90.5 C 499.5,99.8333 499.5,109.167 499.5,118.5C 496.639,126.346 490.973,130.346 482.5,130.5C 461.5,130.5 440.5,130.5 419.5,130.5C 419.5,127.167 419.5,123.833 419.5,120.5C 439.007,120.83 458.341,120.497 477.5,119.5C 481.311,118.848 484.144,116.848 486,113.5C 486.924,106.392 486.591,99.392 485,92.5C 483.352,91.283 481.519,90.4497 479.5,90C 462.833,89.6667 446.167,89.3333 429.5,89C 423.233,87.0663 419.399,82.8996 418,76.5C 416.855,66.9955 417.522,57.6621 420,48.5C 422.796,44.3642 426.629,41.8642 431.5,41C 452.831,40.5 474.164,40.3334 495.5,40.5C 495.5,44.5 495.5,48.5 495.5,52.5C 475.831,52.3334 456.164,52.5 436.5,53C 434,54.1667 432.167,56 431,58.5C 430.149,64.2531 430.483,69.9198 432,75.5C 432.903,76.7014 434.069,77.5348 435.5,78C 453.544,78.0686 471.544,78.7352 489.5,80C 494.443,82.1059 497.776,85.6059 499.5,90.5 Z"/></g>
<g><path style="opacity:0.557" fill="#949a9d" d="M 317.5,49.5 C 317.573,51.0269 316.906,52.0269 315.5,52.5C 315.427,50.9731 316.094,49.9731 317.5,49.5 Z"/></g>
<g><path style="opacity:0.812" fill="#7c8387" d="M 275.5,110.5 C 274.833,113.167 273.167,114.833 270.5,115.5C 271.833,113.5 273.5,111.833 275.5,110.5 Z"/></g>
<g><path style="opacity:0.749" fill="#7d8588" d="M 477.5,119.5 C 458.341,120.497 439.007,120.83 419.5,120.5C 419.5,123.833 419.5,127.167 419.5,130.5C 440.5,130.5 461.5,130.5 482.5,130.5C 461.34,131.497 440.007,131.831 418.5,131.5C 418.5,127.5 418.5,123.5 418.5,119.5C 438.167,119.5 457.833,119.5 477.5,119.5 Z"/></g>
<g><path style="opacity:1" fill="#de3080" d="M 23.5,224.5 C 19.8333,224.5 16.1667,224.5 12.5,224.5C 20.2098,200.078 28.2098,175.745 36.5,151.5C 40.5,151.5 44.5,151.5 48.5,151.5C 40.3663,175.901 32.033,200.234 23.5,224.5 Z"/></g>
<g><path style="opacity:1" fill="#de2d7f" d="M 44.5,223.5 C 40.6707,224.069 37.3373,223.402 34.5,221.5C 41.8283,198.349 49.6616,175.349 58,152.5C 61.73,151.54 65.5633,151.207 69.5,151.5C 61.9413,175.846 53.6079,199.846 44.5,223.5 Z"/></g>
<g><path style="opacity:0.999" fill="#2f3b40" d="M 245.5,152.5 C 249.5,152.5 253.5,152.5 257.5,152.5C 257.5,171.167 257.5,189.833 257.5,208.5C 253.833,208.5 250.167,208.5 246.5,208.5C 246.557,204.867 245.557,204.7 243.5,208C 232.862,211.978 223.695,209.811 216,201.5C 210.135,189.561 211.968,179.061 221.5,170C 229.522,165.175 237.355,165.341 245,170.5C 245.499,164.509 245.666,158.509 245.5,152.5 Z M 232.5,177.5 C 243.76,178.002 247.593,183.668 244,194.5C 238.999,200.587 233.666,200.92 228,195.5C 224.281,188.163 225.781,182.163 232.5,177.5 Z"/></g>
<g><path style="opacity:0.502" fill="#9a9fa2" d="M 245.5,152.5 C 249.634,151.515 253.968,151.182 258.5,151.5C 258.5,170.833 258.5,190.167 258.5,209.5C 254.298,209.817 250.298,209.483 246.5,208.5C 250.167,208.5 253.833,208.5 257.5,208.5C 257.5,189.833 257.5,171.167 257.5,152.5C 253.5,152.5 249.5,152.5 245.5,152.5 Z"/></g>
<g><path style="opacity:1" fill="#de2f80" d="M 444.5,224.5 C 440.833,224.5 437.167,224.5 433.5,224.5C 441.131,200.107 449.464,175.941 458.5,152C 462.152,151.501 465.818,151.335 469.5,151.5C 461.761,176.05 453.428,200.384 444.5,224.5 Z"/></g>
<g><path style="opacity:1" fill="#de2f80" d="M 466.5,222.5 C 462.438,224.176 458.771,223.842 455.5,221.5C 463.223,198.498 471.056,175.498 479,152.5C 483.079,151.371 487.245,151.204 491.5,152C 482.867,175.398 474.534,198.898 466.5,222.5 Z"/></g>
<g><path style="opacity:1" fill="#323d43" d="M 118.5,181.5 C 118.5,190.5 118.5,199.5 118.5,208.5C 114.833,208.5 111.167,208.5 107.5,208.5C 107.649,207.448 107.483,206.448 107,205.5C 98.7498,211.993 90.4165,211.993 82,205.5C 76.738,195.695 79.238,188.862 89.5,185C 95.1958,184.83 100.862,184.33 106.5,183.5C 104.88,179.104 101.713,177.104 97,177.5C 92.8004,177.455 89.1337,178.788 86,181.5C 84.5576,179.609 83.3909,177.609 82.5,175.5C 82.366,173.708 82.6993,172.042 83.5,170.5C 91.3977,166.494 99.731,165.661 108.5,168C 114.732,170.393 118.065,174.893 118.5,181.5 Z M 101.5,200.5 C 98.7212,200.721 96.0545,200.388 93.5,199.5C 90.8938,197.579 90.8938,195.579 93.5,193.5C 97.7649,192.561 102.098,192.228 106.5,192.5C 106.5,196.175 104.833,198.841 101.5,200.5 Z"/></g>
<g><path style="opacity:0.999" fill="#364146" d="M 142.5,166.5 C 152.714,165.108 160.38,168.775 165.5,177.5C 162.587,179.875 159.42,181.875 156,183.5C 149.058,175.277 142.725,175.611 137,184.5C 135.361,193.848 139.195,198.682 148.5,199C 151.552,198.118 153.886,196.284 155.5,193.5C 159.201,195.012 162.534,197.012 165.5,199.5C 161.18,206.498 154.846,210.165 146.5,210.5C 125.444,207.061 118.944,195.395 127,175.5C 131.29,170.779 136.457,167.779 142.5,166.5 Z"/></g>
<g><path style="opacity:0.999" fill="#333e44" d="M 206.5,208.5 C 202.833,208.5 199.167,208.5 195.5,208.5C 195.657,207.127 195.49,205.793 195,204.5C 194.283,205.044 193.783,205.711 193.5,206.5C 192.942,207.79 191.942,208.623 190.5,209C 182.506,211.308 175.339,209.808 169,204.5C 166.622,198.66 167.122,193.16 170.5,188C 171.833,187.333 173.167,186.667 174.5,186C 181.087,184.788 187.754,184.121 194.5,184C 191.819,177.881 187.152,175.881 180.5,178C 177.804,178.765 175.304,179.932 173,181.5C 171.045,178.281 169.712,174.947 169,171.5C 179.25,165.694 189.75,165.194 200.5,170C 203.106,171.938 204.939,174.438 206,177.5C 206.5,187.828 206.666,198.161 206.5,208.5 Z M 182.5,192.5 C 186.5,192.5 190.5,192.5 194.5,192.5C 193.281,200.064 188.948,202.564 181.5,200C 178.86,197.11 179.194,194.61 182.5,192.5 Z"/></g>
<g><path style="opacity:0.999" fill="#313d43" d="M 305.5,183.5 C 305.5,186.167 305.5,188.833 305.5,191.5C 295.319,191.173 285.319,191.506 275.5,192.5C 278.737,198.447 283.737,200.613 290.5,199C 292.664,198.086 294.664,196.919 296.5,195.5C 298.521,196.855 300.188,198.521 301.5,200.5C 301.557,201.609 301.89,202.609 302.5,203.5C 301.327,205.504 299.66,207.004 297.5,208C 285.647,212.119 275.147,209.953 266,201.5C 259.838,189.514 261.672,179.014 271.5,170C 283.421,164.133 293.921,165.966 303,175.5C 304.707,177.909 305.54,180.575 305.5,183.5 Z M 293.5,182.5 C 290.913,183.816 287.913,184.483 284.5,184.5C 281.087,184.483 278.087,183.816 275.5,182.5C 281.452,174.519 287.452,174.519 293.5,182.5 Z"/></g>
<g><path style="opacity:0.749" fill="#727a7d" d="M 312.5,168.5 C 312.5,168.167 312.5,167.833 312.5,167.5C 316.5,167.5 320.5,167.5 324.5,167.5C 324.263,168.791 324.596,169.791 325.5,170.5C 325.44,171.043 325.107,171.376 324.5,171.5C 323.614,170.675 323.281,169.675 323.5,168.5C 319.833,168.5 316.167,168.5 312.5,168.5 Z"/></g>
<g><path style="opacity:0.999" fill="#2e393f" d="M 353.5,184.5 C 352.508,192.316 352.174,200.316 352.5,208.5C 348.5,208.5 344.5,208.5 340.5,208.5C 340.666,200.16 340.5,191.827 340,183.5C 337.087,178.311 332.92,177.144 327.5,180C 326.283,181.648 325.45,183.481 325,185.5C 324.5,193.159 324.334,200.826 324.5,208.5C 320.5,208.5 316.5,208.5 312.5,208.5C 312.5,195.167 312.5,181.833 312.5,168.5C 316.167,168.5 319.833,168.5 323.5,168.5C 323.281,169.675 323.614,170.675 324.5,171.5C 325.107,171.376 325.44,171.043 325.5,170.5C 334.048,164.751 342.214,165.418 350,172.5C 358.79,165.172 367.956,164.672 377.5,171C 378.794,173.087 379.961,175.254 381,177.5C 381.5,188.161 381.667,198.828 381.5,209.5C 377.5,209.5 373.5,209.5 369.5,209.5C 369.853,200.109 369.353,190.775 368,181.5C 365.091,178.606 361.591,177.773 357.5,179C 355.561,180.432 354.228,182.265 353.5,184.5 Z"/></g>
<g><path style="opacity:0.251" fill="#bfc2c4" d="M 312.5,167.5 C 312.5,167.833 312.5,168.167 312.5,168.5C 312.5,181.833 312.5,195.167 312.5,208.5C 316.5,208.5 320.5,208.5 324.5,208.5C 320.366,209.485 316.032,209.818 311.5,209.5C 311.171,195.323 311.504,181.323 312.5,167.5 Z"/></g>
<g><path style="opacity:0.999" fill="#354045" d="M 406.5,192.5 C 407.167,195.167 407.833,195.167 408.5,192.5C 411.377,184.409 414.543,176.409 418,168.5C 422.066,167.536 426.233,167.203 430.5,167.5C 424.303,183.584 417.803,199.584 411,215.5C 408.594,219.408 405.428,222.408 401.5,224.5C 397.167,224.5 392.833,224.5 388.5,224.5C 386.428,223.462 384.761,221.962 383.5,220C 384.611,216.945 386.111,214.112 388,211.5C 393.361,215.879 397.528,215.045 400.5,209C 394.676,195.192 389.009,181.358 383.5,167.5C 388.099,167.2 392.599,167.533 397,168.5C 400.457,176.409 403.623,184.409 406.5,192.5 Z"/></g>
<g><path style="opacity:0.937" fill="#8e9598" d="M 83.5,170.5 C 82.6993,172.042 82.366,173.708 82.5,175.5C 79.5237,173.128 79.857,171.461 83.5,170.5 Z"/></g>
<g><path style="opacity:0.251" fill="#bdc1c3" d="M 118.5,181.5 C 119.494,190.652 119.827,199.985 119.5,209.5C 115.298,209.817 111.298,209.483 107.5,208.5C 111.167,208.5 114.833,208.5 118.5,208.5C 118.5,199.5 118.5,190.5 118.5,181.5 Z"/></g>
<g><path style="opacity:0.749" fill="#697175" d="M 275.5,182.5 C 278.087,183.816 281.087,184.483 284.5,184.5C 287.913,184.483 290.913,183.816 293.5,182.5C 294.404,183.209 294.737,184.209 294.5,185.5C 287.833,185.5 281.167,185.5 274.5,185.5C 274.263,184.209 274.596,183.209 275.5,182.5 Z"/></g>
<g><path style="opacity:0.244" fill="#b6babc" d="M 353.5,184.5 C 353.5,192.833 353.5,201.167 353.5,209.5C 348.968,209.818 344.634,209.485 340.5,208.5C 344.5,208.5 348.5,208.5 352.5,208.5C 352.174,200.316 352.508,192.316 353.5,184.5 Z"/></g>
<g><path style="opacity:0.25" fill="#c3c7c9" d="M 305.5,183.5 C 306.477,186.287 306.81,189.287 306.5,192.5C 296.167,192.5 285.833,192.5 275.5,192.5C 285.319,191.506 295.319,191.173 305.5,191.5C 305.5,188.833 305.5,186.167 305.5,183.5 Z"/></g>
<g><path style="opacity:0.502" fill="#b3b8ba" d="M 406.5,192.5 C 407.167,192.5 407.833,192.5 408.5,192.5C 407.833,195.167 407.167,195.167 406.5,192.5 Z"/></g>
<g><path style="opacity:0.251" fill="#b5b9bc" d="M 93.5,199.5 C 96.0545,200.388 98.7212,200.721 101.5,200.5C 100.378,201.156 99.0451,201.489 97.5,201.5C 95.6672,201.415 94.3339,200.748 93.5,199.5 Z"/></g>
<g><path style="opacity:0.435" fill="#a6abad" d="M 301.5,200.5 C 303.382,201.221 303.715,202.221 302.5,203.5C 301.89,202.609 301.557,201.609 301.5,200.5 Z"/></g>
<g><path style="opacity:0.498" fill="#9da3a5" d="M 206.5,208.5 C 202.702,209.483 198.702,209.817 194.5,209.5C 194.737,208.209 194.404,207.209 193.5,206.5C 193.783,205.711 194.283,205.044 195,204.5C 195.49,205.793 195.657,207.127 195.5,208.5C 199.167,208.5 202.833,208.5 206.5,208.5 Z"/></g>
<g><path style="opacity:0.502" fill="#ec7eb8" d="M 34.5,221.5 C 37.3373,223.402 40.6707,224.069 44.5,223.5C 44.5,223.833 44.5,224.167 44.5,224.5C 40.8333,224.5 37.1667,224.5 33.5,224.5C 33.2627,223.209 33.596,222.209 34.5,221.5 Z"/></g>
<g><path style="opacity:0.502" fill="#ee8dc0" d="M 455.5,221.5 C 458.771,223.842 462.438,224.176 466.5,222.5C 466.5,223.167 466.5,223.833 466.5,224.5C 462.5,224.5 458.5,224.5 454.5,224.5C 454.263,223.209 454.596,222.209 455.5,221.5 Z"/></g>
</svg>
