<?xml version="1.0" encoding="UTF-8"?>
<!DOCTYPE svg PUBLIC "-//W3C//DTD SVG 1.1//EN" "http://www.w3.org/Graphics/SVG/1.1/DTD/svg11.dtd">
<svg xmlns="http://www.w3.org/2000/svg" version="1.1" width="820px" height="456px" style="shape-rendering:geometricPrecision; text-rendering:geometricPrecision; image-rendering:optimizeQuality; fill-rule:evenodd; clip-rule:evenodd" xmlns:xlink="http://www.w3.org/1999/xlink">
<g><path style="opacity:1" fill="#fefdfe" d="M -0.5,-0.5 C 272.833,-0.5 546.167,-0.5 819.5,-0.5C 819.5,151.5 819.5,303.5 819.5,455.5C 546.167,455.5 272.833,455.5 -0.5,455.5C -0.5,303.5 -0.5,151.5 -0.5,-0.5 Z"/></g>
<g><path style="opacity:1" fill="#ec174c" d="M 192.5,49.5 C 192.5,50.1667 192.167,50.5 191.5,50.5C 183.913,50.8142 176.413,50.4808 169,49.5C 168.5,41.1733 168.334,32.84 168.5,24.5C 176.42,24.185 184.253,24.5183 192,25.5C 192.5,33.4931 192.666,41.4931 192.5,49.5 Z"/></g>
<g><path style="opacity:1" fill="#eb184d" d="M 435.5,24.5 C 436.136,39.6283 436.803,54.6283 437.5,69.5C 438.167,69.8333 438.833,70.1667 439.5,70.5C 449.344,71.2977 459.344,71.9643 469.5,72.5C 469.5,79.1667 469.5,85.8333 469.5,92.5C 469.5,93.1667 469.167,93.5 468.5,93.5C 458.319,93.1726 448.319,93.506 438.5,94.5C 437.167,108.15 436.501,122.15 436.5,136.5C 436.667,150.5 436.833,164.5 437,178.5C 438.307,180.192 439.807,181.525 441.5,182.5C 444.431,184.797 447.764,186.297 451.5,187C 458.167,187.333 464.833,187.667 471.5,188C 472,188.5 472.5,189 473,189.5C 473.821,196.679 473.655,203.679 472.5,210.5C 461.148,210.627 449.815,210.294 438.5,209.5C 438.167,209.5 437.833,209.5 437.5,209.5C 437.047,208.542 436.381,207.708 435.5,207C 433.073,205.409 430.407,204.575 427.5,204.5C 418.316,198.777 412.816,190.444 411,179.5C 410.5,151.502 410.333,123.502 410.5,95.5C 410.586,94.5041 410.252,93.6708 409.5,93C 403.252,92.8117 397.085,92.3117 391,91.5C 390.21,85.4478 390.376,79.4478 391.5,73.5C 397.559,73.1368 403.226,72.1368 408.5,70.5C 409.167,70.5 409.5,70.1667 409.5,69.5C 411.187,55.1574 412.187,40.4907 412.5,25.5C 420.138,24.5025 427.804,24.1692 435.5,24.5 Z"/></g>
<g><path style="opacity:1" fill="#ec174c" d="M 27.5,22.5 C 53.8354,22.3334 80.1688,22.5 106.5,23C 119.75,24.1161 129.75,30.2828 136.5,41.5C 137.373,45.284 138.539,48.9506 140,52.5C 140.667,93.5 140.667,134.5 140,175.5C 139.321,179.878 138.488,184.211 137.5,188.5C 136.293,189.189 134.959,189.355 133.5,189C 134.816,190.978 134.316,192.478 132,193.5C 131.51,194.793 131.343,196.127 131.5,197.5C 130.127,197.343 128.793,197.51 127.5,198C 127.833,198.333 128.167,198.667 128.5,199C 122.772,204.837 115.772,208.504 107.5,210C 81.1667,210.667 54.8333,210.667 28.5,210C 28,209.5 27.5,209 27,208.5C 26.5,147.168 26.3333,85.8342 26.5,24.5C 26.8333,23.8333 27.1667,23.1667 27.5,22.5 Z"/></g>
<g><path style="opacity:1" fill="#eb184c" d="M 622.5,24.5 C 630.5,24.5 638.5,24.5 646.5,24.5C 646.5,86.5 646.5,148.5 646.5,210.5C 645.791,211.404 644.791,211.737 643.5,211.5C 636.825,211.666 630.158,211.5 623.5,211C 622.956,210.283 622.289,209.783 621.5,209.5C 621.168,147.664 621.501,85.9977 622.5,24.5 Z"/></g>
<g><path style="opacity:1" fill="#feedf6" d="M 27.5,22.5 C 27.1667,23.1667 26.8333,23.8333 26.5,24.5C 25.5009,85.6644 25.1676,146.998 25.5,208.5C 24.8297,146.961 24.1631,85.294 23.5,23.5C 24.6888,22.5713 26.0222,22.238 27.5,22.5 Z"/></g>
<g><path style="opacity:1" fill="#d54361" d="M 192.5,49.5 C 192.666,41.4931 192.5,33.4931 192,25.5C 184.253,24.5183 176.42,24.185 168.5,24.5C 168.334,32.84 168.5,41.1733 169,49.5C 176.413,50.4808 183.913,50.8142 191.5,50.5C 184.011,51.6557 176.345,51.8223 168.5,51C 168,50.5 167.5,50 167,49.5C 166.333,41.1667 166.333,32.8333 167,24.5C 167.5,24 168,23.5 168.5,23C 176.167,22.3333 183.833,22.3333 191.5,23C 192,23.5 192.5,24 193,24.5C 193.823,33.0104 193.657,41.3437 192.5,49.5 Z"/></g>
<g><path style="opacity:1" fill="#d54363" d="M 352.5,24.5 C 352.611,23.8826 352.944,23.3826 353.5,23C 360.833,22.3333 368.167,22.3333 375.5,23C 376.416,23.3742 377.25,23.8742 378,24.5C 378.667,32.8333 378.667,41.1667 378,49.5C 377.5,50 377,50.5 376.5,51C 368.254,51.8149 360.088,51.6483 352,50.5C 351.176,41.6567 351.343,32.9901 352.5,24.5 Z"/></g>
<g><path style="opacity:1" fill="#ec174c" d="M 352.5,24.5 C 360.5,24.5 368.5,24.5 376.5,24.5C 376.831,32.8599 376.498,41.1932 375.5,49.5C 367.97,50.8203 360.47,50.8203 353,49.5C 352.5,41.1733 352.334,32.84 352.5,24.5 Z"/></g>
<g><path style="opacity:1" fill="#c72d54" d="M 435.5,24.5 C 427.804,24.1692 420.138,24.5025 412.5,25.5C 412.187,40.4907 411.187,55.1574 409.5,69.5C 410.302,54.5442 410.802,39.5442 411,24.5C 419.265,23.1724 427.432,23.1724 435.5,24.5 Z"/></g>
<g><path style="opacity:1" fill="#c82954" d="M 435.5,24.5 C 436.117,24.6107 436.617,24.944 437,25.5C 437.5,40.1629 437.667,54.8295 437.5,69.5C 436.803,54.6283 436.136,39.6283 435.5,24.5 Z"/></g>
<g><path style="opacity:1" fill="#ce2d53" d="M 646.5,210.5 C 646.5,148.5 646.5,86.5 646.5,24.5C 638.5,24.5 630.5,24.5 622.5,24.5C 622.611,23.8826 622.944,23.3826 623.5,23C 631.167,22.3333 638.833,22.3333 646.5,23C 647,23.5 647.5,24 648,24.5C 648.667,85.8333 648.667,147.167 648,208.5C 647.722,209.416 647.222,210.082 646.5,210.5 Z"/></g>
<g><path style="opacity:1" fill="#d53c5a" d="M 108.5,47.5 C 89.7846,46.204 71.1179,46.204 52.5,47.5C 52.5,46.5 52.5,45.5 52.5,44.5C 70.5123,44.1671 88.5123,44.5005 106.5,45.5C 107.243,46.1818 107.909,46.8485 108.5,47.5 Z"/></g>
<g><path style="opacity:1" fill="#fefdfd" d="M 108.5,48.5 C 112.025,49.8496 113.858,52.5163 114,56.5C 114.5,94.8319 114.667,133.165 114.5,171.5C 113.331,174.341 112.331,177.341 111.5,180.5C 108.795,184.193 105.128,186.193 100.5,186.5C 85.1667,186.5 69.8333,186.5 54.5,186.5C 54.5,140.5 54.5,94.5 54.5,48.5C 72.5,48.5 90.5,48.5 108.5,48.5 Z"/></g>
<g><path style="opacity:1" fill="#ffeff9" d="M 108.5,47.5 C 108.5,47.8333 108.5,48.1667 108.5,48.5C 90.5,48.5 72.5,48.5 54.5,48.5C 54.5,94.5 54.5,140.5 54.5,186.5C 69.8333,186.5 85.1667,186.5 100.5,186.5C 85.676,187.496 70.676,187.829 55.5,187.5C 54.5041,187.586 53.6708,187.252 53,186.5C 52.5,140.168 52.3333,93.8345 52.5,47.5C 71.1179,46.204 89.7846,46.204 108.5,47.5 Z"/></g>
<g><path style="opacity:1" fill="#cf2850" d="M 52.5,47.5 C 52.3333,93.8345 52.5,140.168 53,186.5C 53.6708,187.252 54.5041,187.586 55.5,187.5C 55.5,187.833 55.5,188.167 55.5,188.5C 53.8561,188.714 52.3561,188.38 51,187.5C 50.8333,164.167 50.6667,140.833 50.5,117.5C 50.5002,93.8236 51.1669,70.4903 52.5,47.5 Z"/></g>
<g><path style="opacity:1" fill="#df2253" d="M 114.5,52.5 C 115.222,52.9175 115.722,53.5842 116,54.5C 116.667,94.1667 116.667,133.833 116,173.5C 114.798,175.677 114.298,178.011 114.5,180.5C 113.5,180.5 112.5,180.5 111.5,180.5C 112.331,177.341 113.331,174.341 114.5,171.5C 115.819,131.973 115.819,92.3064 114.5,52.5 Z"/></g>
<g><path style="opacity:1" fill="#ce2a53" d="M 136.5,41.5 C 139.028,43.8895 140.528,46.8895 141,50.5C 141.667,93.1667 141.667,135.833 141,178.5C 140.428,182.163 139.262,185.497 137.5,188.5C 138.488,184.211 139.321,179.878 140,175.5C 140.667,134.5 140.667,93.5 140,52.5C 138.539,48.9506 137.373,45.284 136.5,41.5 Z"/></g>
<g><path style="opacity:1" fill="#c32c52" d="M 108.5,48.5 C 108.5,48.1667 108.5,47.8333 108.5,47.5C 111.958,47.4145 113.958,49.0812 114.5,52.5C 115.819,92.3064 115.819,131.973 114.5,171.5C 114.667,133.165 114.5,94.8319 114,56.5C 113.858,52.5163 112.025,49.8496 108.5,48.5 Z"/></g>
<g><path style="opacity:1" fill="#ffb9d0" d="M 190.5,70.5 C 182.747,70.201 175.08,70.5343 167.5,71.5C 170.938,70.1768 174.771,69.5102 179,69.5C 183.015,69.5012 186.849,69.8345 190.5,70.5 Z"/></g>
<g><path style="opacity:1" fill="#c32f51" d="M 324.5,71.5 C 298.995,71.1689 273.661,71.5023 248.5,72.5C 247.167,72.5 245.833,72.5 244.5,72.5C 245.263,71.7321 246.263,71.2321 247.5,71C 273.337,70.1699 299.003,70.3366 324.5,71.5 Z"/></g>
<g><path style="opacity:1" fill="#ec184d" d="M 244.5,72.5 C 245.833,72.5 247.167,72.5 248.5,72.5C 273.833,72.5 299.167,72.5 324.5,72.5C 324.667,123.168 324.5,173.834 324,224.5C 322.014,227.956 320.514,231.622 319.5,235.5C 318.476,236.853 317.143,237.52 315.5,237.5C 315.5,239.167 315.5,240.833 315.5,242.5C 309.844,249.328 302.511,252.995 293.5,253.5C 271.66,253.831 249.994,253.497 228.5,252.5C 228.5,245.833 228.5,239.167 228.5,232.5C 248.511,232.833 268.511,232.5 288.5,231.5C 289.77,230.712 290.77,229.712 291.5,228.5C 293.386,227.07 295.053,225.403 296.5,223.5C 298.87,223.017 299.537,221.851 298.5,220C 299.126,219.25 299.626,218.416 300,217.5C 300.5,208.173 300.666,198.839 300.5,189.5C 299.209,189.263 298.209,189.596 297.5,190.5C 297.5,190.833 297.5,191.167 297.5,191.5C 293.06,199.059 286.393,203.059 277.5,203.5C 264.749,203.957 252.082,203.291 239.5,201.5C 236.669,200.921 234.336,199.588 232.5,197.5C 229.668,194.499 227.002,191.333 224.5,188C 226.134,187.506 227.801,187.34 229.5,187.5C 229.657,186.127 229.49,184.793 229,183.5C 228.667,183.833 228.333,184.167 228,184.5C 226.175,183.897 224.341,183.23 222.5,182.5C 223.103,180.548 222.77,178.548 221.5,176.5C 220.675,175.614 219.675,175.281 218.5,175.5C 218.333,150.164 218.5,124.831 219,99.5C 219.977,97.26 220.477,94.9267 220.5,92.5C 225.179,81.8193 233.179,75.1526 244.5,72.5 Z"/></g>
<g><path style="opacity:1" fill="#ec174c" d="M 570.5,174.5 C 570.824,147.456 570.491,120.456 569.5,93.5C 555.339,92.1743 541.339,92.1743 527.5,93.5C 524.211,94.3739 520.877,95.0405 517.5,95.5C 517.5,96.5 517.5,97.5 517.5,98.5C 516.127,98.3433 514.793,98.51 513.5,99C 515.585,100.526 515.585,102.36 513.5,104.5C 512.334,128.493 512.167,152.493 513,176.5C 514.117,177.949 514.784,179.616 515,181.5C 516.33,182.582 517.83,183.249 519.5,183.5C 519.5,184.833 519.5,186.167 519.5,187.5C 531.457,189.901 543.457,190.068 555.5,188C 556.942,187.623 557.942,186.79 558.5,185.5C 559.391,184.89 560.391,184.557 561.5,184.5C 567.805,184.944 569.138,187.777 565.5,193C 565.645,194.226 565.978,195.393 566.5,196.5C 565.5,197.333 564.5,198.167 563.5,199C 563.833,199.333 564.167,199.667 564.5,200C 563.216,200.684 562.049,200.517 561,199.5C 561.522,201.88 561.355,204.213 560.5,206.5C 559.833,206.833 559.167,207.167 558.5,207.5C 545.315,210.095 531.981,211.095 518.5,210.5C 512.053,207.777 505.72,204.777 499.5,201.5C 494.34,197.176 490.673,191.842 488.5,185.5C 488.5,184.167 488.5,182.833 488.5,181.5C 488.333,154.831 488.5,128.165 489,101.5C 490.252,99.9991 491.252,98.3325 492,96.5C 493.088,99.9926 494.255,100.159 495.5,97C 492.697,95.0886 492.03,92.5886 493.5,89.5C 496.472,85.1951 499.805,81.1951 503.5,77.5C 505.144,77.2865 506.644,77.6198 508,78.5C 510.862,76.9296 513.695,75.263 516.5,73.5C 542.491,72.5002 568.491,72.1669 594.5,72.5C 594.667,117.835 594.5,163.168 594,208.5C 592.187,207.391 591.354,208.058 591.5,210.5C 584.578,210.812 577.744,210.479 571,209.5C 570.807,204.25 570.307,199.083 569.5,194C 576.078,193.115 576.078,191.948 569.5,190.5C 570.689,189.571 572.022,189.238 573.5,189.5C 574.055,185.416 573.055,184.749 570.5,187.5C 567,184.225 566.666,180.558 569.5,176.5C 571.7,177.456 572.033,176.79 570.5,174.5 Z"/></g>
<g><path style="opacity:1" fill="#d73259" d="M 439.5,70.5 C 449.506,70.3335 459.506,70.5002 469.5,71C 470,71.5 470.5,72 471,72.5C 471.667,78.8333 471.667,85.1667 471,91.5C 470.617,92.056 470.117,92.3893 469.5,92.5C 469.5,85.8333 469.5,79.1667 469.5,72.5C 459.344,71.9643 449.344,71.2977 439.5,70.5 Z"/></g>
<g><path style="opacity:1" fill="#ffdcea" d="M 594.5,70.5 C 596.423,70.795 598.09,71.6283 599.5,73C 598.167,118 598.167,163 599.5,208C 598.386,209.57 597.053,210.903 595.5,212C 587.323,212.823 579.323,212.656 571.5,211.5C 579.174,211.666 586.841,211.5 594.5,211C 595,210.5 595.5,210 596,209.5C 596.667,163.833 596.667,118.167 596,72.5C 595.283,71.9558 594.783,71.2891 594.5,70.5 Z"/></g>
<g><path style="opacity:1" fill="#d1274e" d="M 248.5,72.5 C 273.661,71.5023 298.995,71.1689 324.5,71.5C 325.117,71.6107 325.617,71.944 326,72.5C 326.667,122.167 326.667,171.833 326,221.5C 324.737,226.621 323.071,231.621 321,236.5C 319.669,238.996 317.836,240.996 315.5,242.5C 315.5,240.833 315.5,239.167 315.5,237.5C 317.143,237.52 318.476,236.853 319.5,235.5C 320.514,231.622 322.014,227.956 324,224.5C 324.5,173.834 324.667,123.168 324.5,72.5C 299.167,72.5 273.833,72.5 248.5,72.5 Z"/></g>
<g><path style="opacity:1" fill="#d23659" d="M 377.5,71.5 C 378.495,117.095 378.828,162.761 378.5,208.5C 378.167,209.5 377.5,210.167 376.5,210.5C 368.432,211.828 360.265,211.828 352,210.5C 351.333,164.167 351.333,117.833 352,71.5C 360.5,70.1805 369,70.1805 377.5,71.5 Z"/></g>
<g><path style="opacity:1" fill="#ec164c" d="M 376.5,210.5 C 368.58,210.815 360.747,210.482 353,209.5C 352.5,163.835 352.333,118.168 352.5,72.5C 360.5,72.5 368.5,72.5 376.5,72.5C 376.5,118.5 376.5,164.5 376.5,210.5 Z"/></g>
<g><path style="opacity:1" fill="#ffebf6" d="M 377.5,71.5 C 378.833,93.9901 379.5,116.823 379.5,140C 379.5,163.002 379.167,185.836 378.5,208.5C 378.828,162.761 378.495,117.095 377.5,71.5 Z"/></g>
<g><path style="opacity:1" fill="#d8254f" d="M 594.5,70.5 C 594.783,71.2891 595.283,71.9558 596,72.5C 596.667,118.167 596.667,163.833 596,209.5C 595.5,210 595,210.5 594.5,211C 586.841,211.5 579.174,211.666 571.5,211.5C 570.094,211.027 569.427,210.027 569.5,208.5C 569.823,204.774 569.489,201.107 568.5,197.5C 566.86,200.468 564.86,203.135 562.5,205.5C 561.833,205.833 561.167,206.167 560.5,206.5C 561.355,204.213 561.522,201.88 561,199.5C 562.049,200.517 563.216,200.684 564.5,200C 564.167,199.667 563.833,199.333 563.5,199C 564.5,198.167 565.5,197.333 566.5,196.5C 565.978,195.393 565.645,194.226 565.5,193C 569.138,187.777 567.805,184.944 561.5,184.5C 564.244,182.016 566.244,179.016 567.5,175.5C 568.391,174.89 569.391,174.557 570.5,174.5C 572.033,176.79 571.7,177.456 569.5,176.5C 566.666,180.558 567,184.225 570.5,187.5C 573.055,184.749 574.055,185.416 573.5,189.5C 572.022,189.238 570.689,189.571 569.5,190.5C 576.078,191.948 576.078,193.115 569.5,194C 570.307,199.083 570.807,204.25 571,209.5C 577.744,210.479 584.578,210.812 591.5,210.5C 591.354,208.058 592.187,207.391 594,208.5C 594.5,163.168 594.667,117.835 594.5,72.5C 568.491,72.1669 542.491,72.5002 516.5,73.5C 513.695,75.263 510.862,76.9296 508,78.5C 506.644,77.6198 505.144,77.2865 503.5,77.5C 507.981,73.4999 513.314,71.3332 519.5,71C 544.498,70.5 569.498,70.3334 594.5,70.5 Z"/></g>
<g><path style="opacity:1" fill="#d03759" d="M 190.5,70.5 C 191.496,70.4142 192.329,70.7476 193,71.5C 193.832,118.002 193.665,164.335 192.5,210.5C 184.677,211.656 176.677,211.823 168.5,211C 168,210.5 167.5,210 167,209.5C 166.168,163.332 166.335,117.332 167.5,71.5C 175.08,70.5343 182.747,70.201 190.5,70.5 Z"/></g>
<g><path style="opacity:1" fill="#ec164c" d="M 192.5,210.5 C 184.58,210.815 176.747,210.482 169,209.5C 168.5,163.835 168.333,118.168 168.5,72.5C 176.5,72.5 184.5,72.5 192.5,72.5C 192.5,118.5 192.5,164.5 192.5,210.5 Z"/></g>
<g><path style="opacity:1" fill="#d73c5d" d="M 408.5,70.5 C 403.226,72.1368 397.559,73.1368 391.5,73.5C 390.376,79.4478 390.21,85.4478 391,91.5C 397.085,92.3117 403.252,92.8117 409.5,93C 410.252,93.6708 410.586,94.5041 410.5,95.5C 404.247,94.7068 397.914,94.2068 391.5,94C 391,93.5 390.5,93 390,92.5C 389.333,85.5 389.333,78.5 390,71.5C 396.076,70.5236 402.242,70.1903 408.5,70.5 Z"/></g>
<g><path style="opacity:1" fill="#fefbfc" d="M 258.5,94.5 C 272.079,94.177 285.579,94.5103 299,95.5C 299.667,117.833 299.667,140.167 299,162.5C 298.007,165.474 297.174,168.474 296.5,171.5C 293.263,175.799 288.93,178.633 283.5,180C 273.439,180.895 263.439,180.562 253.5,179C 248.073,175.951 244.739,171.451 243.5,165.5C 243.19,145.454 243.524,125.454 244.5,105.5C 247.154,99.4805 251.821,95.8138 258.5,94.5 Z"/></g>
<g><path style="opacity:1" fill="#fefcfd" d="M 567.5,94.5 C 568.117,94.6107 568.617,94.944 569,95.5C 569.667,120.5 569.667,145.5 569,170.5C 568.392,172.154 567.892,173.821 567.5,175.5C 566.244,179.016 564.244,182.016 561.5,184.5C 560.391,184.557 559.391,184.89 558.5,185.5C 547.962,187.539 537.295,188.039 526.5,187C 523.861,186.347 521.527,185.18 519.5,183.5C 518.075,182.078 517.075,180.411 516.5,178.5C 516.162,176.146 515.662,173.813 515,171.5C 514.5,150.169 514.333,128.836 514.5,107.5C 515.492,101.035 519.159,96.868 525.5,95C 539.496,94.5001 553.496,94.3334 567.5,94.5 Z"/></g>
<g><path style="opacity:1" fill="#fddeeb" d="M 468.5,93.5 C 458.716,95.406 448.716,96.406 438.5,96.5C 437.96,123.898 438.626,151.232 440.5,178.5C 439.207,177.158 438.374,175.491 438,173.5C 437.177,147.095 437.343,120.761 438.5,94.5C 448.319,93.506 458.319,93.1726 468.5,93.5 Z"/></g>
<g><path style="opacity:1" fill="#d02750" d="M 527.5,93.5 C 541.339,92.1743 555.339,92.1743 569.5,93.5C 570.491,120.456 570.824,147.456 570.5,174.5C 569.391,174.557 568.391,174.89 567.5,175.5C 567.892,173.821 568.392,172.154 569,170.5C 569.667,145.5 569.667,120.5 569,95.5C 568.617,94.944 568.117,94.6107 567.5,94.5C 554.344,93.5044 541.01,93.1711 527.5,93.5 Z"/></g>
<g><path style="opacity:1" fill="#d94766" d="M 258.5,94.5 C 272.323,93.5042 286.323,93.1709 300.5,93.5C 300.667,117.502 300.5,141.502 300,165.5C 299.261,167.889 298.095,169.889 296.5,171.5C 297.174,168.474 298.007,165.474 299,162.5C 299.667,140.167 299.667,117.833 299,95.5C 285.579,94.5103 272.079,94.177 258.5,94.5 Z"/></g>
<g><path style="opacity:1" fill="#cb2a54" d="M 438.5,94.5 C 437.343,120.761 437.177,147.095 438,173.5C 438.374,175.491 439.207,177.158 440.5,178.5C 440.833,179.833 441.167,181.167 441.5,182.5C 439.807,181.525 438.307,180.192 437,178.5C 436.833,164.5 436.667,150.5 436.5,136.5C 436.501,122.15 437.167,108.15 438.5,94.5 Z"/></g>
<g><path style="opacity:1" fill="#d32c51" d="M 503.5,77.5 C 499.805,81.1951 496.472,85.1951 493.5,89.5C 492.03,92.5886 492.697,95.0886 495.5,97C 494.255,100.159 493.088,99.9926 492,96.5C 491.252,98.3325 490.252,99.9991 489,101.5C 488.5,128.165 488.333,154.831 488.5,181.5C 487.691,179.708 487.191,177.708 487,175.5C 486.5,151.502 486.333,127.502 486.5,103.5C 488.23,92.1311 493.897,83.4644 503.5,77.5 Z"/></g>
<g><path style="opacity:1" fill="#cc264f" d="M 244.5,105.5 C 243.524,125.454 243.19,145.454 243.5,165.5C 242.338,146.004 242.171,126.338 243,106.5C 243.383,105.944 243.883,105.611 244.5,105.5 Z"/></g>
<g><path style="opacity:1" fill="#d74463" d="M 527.5,93.5 C 541.01,93.1711 554.344,93.5044 567.5,94.5C 553.496,94.3334 539.496,94.5001 525.5,95C 519.159,96.868 515.492,101.035 514.5,107.5C 513.337,129.329 513.17,151.329 514,173.5C 514.374,175.491 515.207,177.158 516.5,178.5C 517.075,180.411 518.075,182.078 519.5,183.5C 517.83,183.249 516.33,182.582 515,181.5C 514.784,179.616 514.117,177.949 513,176.5C 512.167,152.493 512.334,128.493 513.5,104.5C 515.585,102.36 515.585,100.526 513.5,99C 514.793,98.51 516.127,98.3433 517.5,98.5C 517.5,97.5 517.5,96.5 517.5,95.5C 520.877,95.0405 524.211,94.3739 527.5,93.5 Z"/></g>
<g><path style="opacity:1" fill="#ffe7f4" d="M 514.5,107.5 C 514.333,128.836 514.5,150.169 515,171.5C 515.662,173.813 516.162,176.146 516.5,178.5C 515.207,177.158 514.374,175.491 514,173.5C 513.17,151.329 513.337,129.329 514.5,107.5 Z"/></g>
<g><path style="opacity:1" fill="#ffecf6" d="M 486.5,103.5 C 486.333,127.502 486.5,151.502 487,175.5C 487.191,177.708 487.691,179.708 488.5,181.5C 488.5,182.833 488.5,184.167 488.5,185.5C 487.883,185.389 487.383,185.056 487,184.5C 486.667,182.5 486.333,180.5 486,178.5C 485.667,179.167 485.333,179.833 485,180.5C 484.833,167.667 484.667,154.833 484.5,142C 484.501,128.815 485.167,115.982 486.5,103.5 Z"/></g>
<g><path style="opacity:1" fill="#d72c54" d="M 220.5,92.5 C 220.477,94.9267 219.977,97.26 219,99.5C 218.5,124.831 218.333,150.164 218.5,175.5C 219.675,175.281 220.675,175.614 221.5,176.5C 222.77,178.548 223.103,180.548 222.5,182.5C 224.341,183.23 226.175,183.897 228,184.5C 228.333,184.167 228.667,183.833 229,183.5C 229.49,184.793 229.657,186.127 229.5,187.5C 227.801,187.34 226.134,187.506 224.5,188C 227.002,191.333 229.668,194.499 232.5,197.5C 228.566,195.402 225.4,192.402 223,188.5C 219.546,182.601 217.546,176.267 217,169.5C 216.333,147.167 216.333,124.833 217,102.5C 217.373,98.7821 218.539,95.4488 220.5,92.5 Z"/></g>
<g><path style="opacity:1" fill="#dc4064" d="M 519.5,183.5 C 521.527,185.18 523.861,186.347 526.5,187C 537.295,188.039 547.962,187.539 558.5,185.5C 557.942,186.79 556.942,187.623 555.5,188C 543.457,190.068 531.457,189.901 519.5,187.5C 519.5,186.167 519.5,184.833 519.5,183.5 Z"/></g>
<g><path style="opacity:1" fill="#e14667" d="M 111.5,180.5 C 110.468,183.707 108.468,186.207 105.5,188C 88.6941,189.712 72.0274,189.878 55.5,188.5C 55.5,188.167 55.5,187.833 55.5,187.5C 70.676,187.829 85.676,187.496 100.5,186.5C 105.128,186.193 108.795,184.193 111.5,180.5 Z"/></g>
<g><path style="opacity:1" fill="#fdb8cb" d="M 297.5,191.5 C 297.5,191.167 297.5,190.833 297.5,190.5C 298.825,194.276 299.491,198.443 299.5,203C 299.499,207.347 299.166,211.514 298.5,215.5C 298.826,207.316 298.492,199.316 297.5,191.5 Z"/></g>
<g><path style="opacity:1" fill="#ffe0e9" d="M 569.5,208.5 C 567.87,206.974 567.037,204.974 567,202.5C 566.082,204.376 564.582,205.376 562.5,205.5C 564.86,203.135 566.86,200.468 568.5,197.5C 569.489,201.107 569.823,204.774 569.5,208.5 Z"/></g>
<g><path style="opacity:1" fill="#d22d55" d="M 297.5,190.5 C 298.209,189.596 299.209,189.263 300.5,189.5C 300.666,198.839 300.5,208.173 300,217.5C 299.626,218.416 299.126,219.25 298.5,220C 299.537,221.851 298.87,223.017 296.5,223.5C 297.371,220.888 298.037,218.221 298.5,215.5C 299.166,211.514 299.499,207.347 299.5,203C 299.491,198.443 298.825,194.276 297.5,190.5 Z"/></g>
<g><path style="opacity:1" fill="#c6375b" d="M 239.5,201.5 C 252.082,203.291 264.749,203.957 277.5,203.5C 267.342,204.659 257.008,204.825 246.5,204C 243.896,203.61 241.562,202.776 239.5,201.5 Z"/></g>
<g><path style="opacity:1" fill="#d94062" d="M 427.5,204.5 C 430.407,204.575 433.073,205.409 435.5,207C 436.381,207.708 437.047,208.542 437.5,209.5C 433.569,208.868 430.235,207.201 427.5,204.5 Z"/></g>
<g><path style="opacity:1" fill="#d73d60" d="M 499.5,201.5 C 505.72,204.777 512.053,207.777 518.5,210.5C 510.939,209.885 504.606,206.885 499.5,201.5 Z"/></g>
<g><path style="opacity:1" fill="#cd2b53" d="M 26.5,24.5 C 26.3333,85.8342 26.5,147.168 27,208.5C 27.5,209 28,209.5 28.5,210C 54.8333,210.667 81.1667,210.667 107.5,210C 115.772,208.504 122.772,204.837 128.5,199C 128.167,198.667 127.833,198.333 127.5,198C 128.793,197.51 130.127,197.343 131.5,197.5C 131.343,196.127 131.51,194.793 132,193.5C 134.316,192.478 134.816,190.978 133.5,189C 134.959,189.355 136.293,189.189 137.5,188.5C 132.071,201.24 122.404,208.74 108.5,211C 81.5,211.667 54.5,211.667 27.5,211C 26.6195,210.292 25.9528,209.458 25.5,208.5C 25.1676,146.998 25.5009,85.6644 26.5,24.5 Z"/></g>
<g><path style="opacity:1" fill="#d23358" d="M 438.5,209.5 C 449.815,210.294 461.148,210.627 472.5,210.5C 462.675,211.658 452.675,211.825 442.5,211C 440.942,210.79 439.609,210.29 438.5,209.5 Z"/></g>
<g><path style="opacity:1" fill="#d23257" d="M 558.5,207.5 C 557.833,208.167 557.167,208.833 556.5,209.5C 546.948,211.284 537.281,211.95 527.5,211.5C 524.287,211.81 521.287,211.477 518.5,210.5C 531.981,211.095 545.315,210.095 558.5,207.5 Z"/></g>
<g><path style="opacity:1" fill="#ffdeea" d="M 556.5,209.5 C 555.4,210.558 554.066,211.392 552.5,212C 543.99,212.823 535.656,212.657 527.5,211.5C 537.281,211.95 546.948,211.284 556.5,209.5 Z"/></g>
<g><path style="opacity:1" fill="#ffc1d1" d="M 621.5,209.5 C 622.289,209.783 622.956,210.283 623.5,211C 630.158,211.5 636.825,211.666 643.5,211.5C 636.352,212.492 629.019,212.825 621.5,212.5C 621.5,211.5 621.5,210.5 621.5,209.5 Z"/></g>
<g><path style="opacity:1" fill="#dd4967" d="M 291.5,228.5 C 290.77,229.712 289.77,230.712 288.5,231.5C 268.511,232.5 248.511,232.833 228.5,232.5C 228.5,239.167 228.5,245.833 228.5,252.5C 227.509,246.021 227.176,239.354 227.5,232.5C 227.918,231.778 228.584,231.278 229.5,231C 248.5,230.667 267.5,230.333 286.5,230C 288.154,229.392 289.821,228.892 291.5,228.5 Z"/></g>
<g><path style="opacity:1" fill="#4e4e4e" d="M 28.5,242.5 C 32.7675,242.203 36.9341,242.536 41,243.5C 41.1708,273.738 41.6708,303.905 42.5,334C 69.8313,334.5 97.1646,334.667 124.5,334.5C 124.333,304.165 124.5,273.832 125,243.5C 129.333,242.167 133.667,242.167 138,243.5C 138.667,305.833 138.667,368.167 138,430.5C 133.667,431.833 129.333,431.833 125,430.5C 124.667,403.167 124.333,375.833 124,348.5C 110.406,347.838 96.7397,347.504 83,347.5C 69.2603,347.504 55.5936,347.838 42,348.5C 41.6667,375.833 41.3333,403.167 41,430.5C 36.9215,431.629 32.7548,431.796 28.5,431C 27.1684,368.167 27.1684,305.333 28.5,242.5 Z"/></g>
<g><path style="opacity:1" fill="#c12f54" d="M 227.5,232.5 C 227.176,239.354 227.509,246.021 228.5,252.5C 249.994,253.497 271.66,253.831 293.5,253.5C 271.671,254.663 249.671,254.83 227.5,254C 226.173,246.735 226.173,239.568 227.5,232.5 Z"/></g>
<g><path style="opacity:1" fill="#4f4f4f" d="M 198.5,290.5 C 212.837,290.333 227.171,290.5 241.5,291C 257,294.5 266.5,304 270,319.5C 270.667,346.833 270.667,374.167 270,401.5C 266.715,418.452 256.548,428.285 239.5,431C 225.5,431.667 211.5,431.667 197.5,431C 180.424,426.259 170.924,415.092 169,397.5C 168.333,372.167 168.333,346.833 169,321.5C 172.108,304.522 181.941,294.189 198.5,290.5 Z"/></g>
<g><path style="opacity:1" fill="#4e4e4e" d="M 297.5,290.5 C 301.767,290.203 305.934,290.536 310,291.5C 310.333,326.833 310.667,362.167 311,397.5C 311.673,406.689 316.173,413.189 324.5,417C 331.424,418.11 338.424,418.61 345.5,418.5C 356.419,420.103 366.419,417.936 375.5,412C 379.13,408.238 381.297,403.738 382,398.5C 382.333,362.833 382.667,327.167 383,291.5C 387.401,290.533 391.901,290.2 396.5,290.5C 396.667,337.168 396.5,383.835 396,430.5C 391.667,431.833 387.333,431.833 383,430.5C 382.667,426.167 382.333,421.833 382,417.5C 378.229,423.936 372.729,428.103 365.5,430C 352.876,431.54 340.209,431.874 327.5,431C 309.561,428.06 299.394,417.56 297,399.5C 296.174,363.095 296.34,326.762 297.5,290.5 Z"/></g>
<g><path style="opacity:1" fill="#4f4f4f" d="M 560.5,290.5 C 574.504,290.333 588.504,290.5 602.5,291C 620.874,293.554 631.374,304.054 634,322.5C 634.667,337.167 634.667,351.833 634,366.5C 633.5,367 633,367.5 632.5,368C 603.835,368.5 575.169,368.667 546.5,368.5C 546.334,378.839 546.5,389.172 547,399.5C 550.135,412.3 558.302,418.8 571.5,419C 591.831,419.5 612.164,419.667 632.5,419.5C 632.793,423.437 632.46,427.27 631.5,431C 608.167,431.667 584.833,431.667 561.5,431C 544.679,427.176 535.179,416.676 533,399.5C 532.333,373.5 532.333,347.5 533,321.5C 535.682,305.323 544.848,294.99 560.5,290.5 Z"/></g>
<g><path style="opacity:1" fill="#fcfcfc" d="M 202.5,302.5 C 214.886,302.106 227.22,302.606 239.5,304C 248.096,306.929 253.596,312.763 256,321.5C 256.667,347.5 256.667,373.5 256,399.5C 252.879,412.283 244.713,418.783 231.5,419C 222.5,419.667 213.5,419.667 204.5,419C 192.05,417.217 184.883,410.05 183,397.5C 182.333,373.5 182.333,349.5 183,325.5C 184.342,313.333 190.842,305.667 202.5,302.5 Z"/></g>
<g><path style="opacity:1" fill="#fbfbfb" d="M 567.5,302.5 C 577.839,302.334 588.172,302.5 598.5,303C 610.1,304.599 617.266,311.099 620,322.5C 620.832,333.848 620.666,345.181 619.5,356.5C 595.5,357.833 571.5,357.833 547.5,356.5C 546.08,343.79 546.247,331.123 548,318.5C 551.725,309.594 558.225,304.261 567.5,302.5 Z"/></g>
<g><path style="opacity:1" fill="#4e4e4e" d="M 444.5,290.5 C 464.167,290.5 483.833,290.5 503.5,290.5C 503.793,294.437 503.46,298.27 502.5,302C 484.833,302.333 467.167,302.667 449.5,303C 436.42,307.655 431.586,316.822 435,330.5C 438.285,337.744 443.785,342.578 451.5,345C 467.858,350.895 483.858,357.561 499.5,365C 505.77,370.372 509.27,377.205 510,385.5C 510.667,392.833 510.667,400.167 510,407.5C 507.833,420.333 500.333,427.833 487.5,430C 465.866,431.586 444.2,431.919 422.5,431C 421.167,427.333 421.167,423.667 422.5,420C 442.543,419.939 462.543,419.272 482.5,418C 492.951,414.445 497.618,407.112 496.5,396C 497.391,387.338 494.725,380.005 488.5,374C 470.53,366.351 452.53,358.684 434.5,351C 424.104,344.375 419.438,334.875 420.5,322.5C 419.814,305.2 427.814,294.534 444.5,290.5 Z"/></g>
<g><path style="opacity:1" fill="#4f4f4f" d="M 689.5,290.5 C 692.425,290.46 695.091,291.293 697.5,293C 729.916,313.292 762.416,333.459 795,353.5C 797.059,358.745 796.892,363.911 794.5,369C 760.275,390.069 725.941,410.902 691.5,431.5C 690.558,431.392 689.725,431.059 689,430.5C 688.833,428.833 688.667,427.167 688.5,425.5C 688.288,422.989 688.955,420.822 690.5,419C 721.668,399.917 752.668,380.584 783.5,361C 752.668,341.416 721.668,322.083 690.5,303C 688.294,298.983 687.961,294.817 689.5,290.5 Z"/></g>
</svg>
