<?xml version="1.0" encoding="UTF-8"?>
<!DOCTYPE svg PUBLIC "-//W3C//DTD SVG 1.1//EN" "http://www.w3.org/Graphics/SVG/1.1/DTD/svg11.dtd">
<svg xmlns="http://www.w3.org/2000/svg" version="1.1" width="1079px" height="302px" style="shape-rendering:geometricPrecision; text-rendering:geometricPrecision; image-rendering:optimizeQuality; fill-rule:evenodd; clip-rule:evenodd" xmlns:xlink="http://www.w3.org/1999/xlink">
<g><path style="opacity:1" fill="#fefefe" d="M -0.5,-0.5 C 359.167,-0.5 718.833,-0.5 1078.5,-0.5C 1078.5,100.167 1078.5,200.833 1078.5,301.5C 718.833,301.5 359.167,301.5 -0.5,301.5C -0.5,200.833 -0.5,100.167 -0.5,-0.5 Z"/></g>
<g><path style="opacity:1" fill="#cc1f41" d="M 17.5,32.5 C 35.8364,32.3334 54.1697,32.5001 72.5,33C 85.1793,33.6822 94.0126,39.8488 99,51.5C 99.6667,82.8333 99.6667,114.167 99,145.5C 97.1389,159.361 89.3056,167.194 75.5,169C 55.5935,169.826 35.7601,169.659 16,168.5C 15.3333,123.833 15.3333,79.1667 16,34.5C 16.7172,33.9558 17.2172,33.2891 17.5,32.5 Z"/></g>
<g><path style="opacity:1" fill="#34393d" d="M 493.5,32.5 C 496.119,32.2317 498.619,32.565 501,33.5C 501.5,55.4975 501.667,77.4975 501.5,99.5C 521.833,99.5 542.167,99.5 562.5,99.5C 562.333,77.4975 562.5,55.4975 563,33.5C 565.737,32.3895 568.571,32.2228 571.5,33C 572.663,78.0958 572.83,123.262 572,168.5C 568.943,169.451 565.777,169.784 562.5,169.5C 562.5,149.167 562.5,128.833 562.5,108.5C 542.497,108.333 522.497,108.5 502.5,109C 501.507,129.091 501.173,149.257 501.5,169.5C 498.5,169.5 495.5,169.5 492.5,169.5C 492.172,123.761 492.505,78.0946 493.5,32.5 Z"/></g>
<g><path style="opacity:1" fill="#cc1f41" d="M 119.5,33.5 C 125.425,33.1918 131.259,33.5251 137,34.5C 137.809,40.7489 137.642,46.9156 136.5,53C 131.167,53.6667 125.833,53.6667 120.5,53C 120,52.5 119.5,52 119,51.5C 118.212,45.418 118.379,39.418 119.5,33.5 Z"/></g>
<g><path style="opacity:1" fill="#cd2745" d="M 296.5,33.5 C 302.758,33.1903 308.924,33.5236 315,34.5C 315.5,45.495 315.667,56.495 315.5,67.5C 323.174,67.3336 330.841,67.5003 338.5,68C 339,68.5 339.5,69 340,69.5C 340.667,73.8333 340.667,78.1667 340,82.5C 339.5,83 339,83.5 338.5,84C 330.841,84.4997 323.174,84.6664 315.5,84.5C 315.333,104.503 315.5,124.503 316,144.5C 317.167,148.333 319.667,150.833 323.5,152C 329.167,152.333 334.833,152.667 340.5,153C 341,153.5 341.5,154 342,154.5C 342.777,159.222 342.61,163.889 341.5,168.5C 334.524,169.664 327.524,169.831 320.5,169C 305.45,166.614 297.283,157.781 296,142.5C 295.5,123.17 295.333,103.836 295.5,84.5C 281.281,87.6118 276.614,82.2785 281.5,68.5C 286.12,67.5067 290.786,67.1734 295.5,67.5C 295.21,56.1159 295.543,44.7825 296.5,33.5 Z"/></g>
<g><path style="opacity:1" fill="#cc2042" d="M 451.5,32.5 C 457.093,32.1934 462.593,32.5268 468,33.5C 468.83,78.7375 468.663,123.904 467.5,169C 461.584,169.807 455.75,169.641 450,168.5C 449.333,123.833 449.333,79.1667 450,34.5C 450.717,33.9558 451.217,33.2891 451.5,32.5 Z"/></g>
<g><path style="opacity:1" fill="#cc2143" d="M 253.5,33.5 C 259.758,33.1903 265.924,33.5236 272,34.5C 272.667,40.1667 272.667,45.8333 272,51.5C 271.5,52 271,52.5 270.5,53C 265.167,53.6667 259.833,53.6667 254.5,53C 254,52.5 253.5,52 253,51.5C 252.212,45.418 252.379,39.418 253.5,33.5 Z"/></g>
<g><path style="opacity:1" fill="#fefdfe" d="M 35.5,49.5 C 48.5043,49.3334 61.5043,49.5001 74.5,50C 77.3333,50.8333 79.1667,52.6667 80,55.5C 80.6667,84.5 80.6667,113.5 80,142.5C 78.9905,146.843 76.4905,150.01 72.5,152C 59.8377,152.5 47.1711,152.667 34.5,152.5C 34.1739,118.094 34.5073,83.7603 35.5,49.5 Z"/></g>
<g><path style="opacity:1" fill="#353a3e" d="M 616.5,67.5 C 627.881,67.1445 639.215,67.6445 650.5,69C 659.834,72.3352 665.667,78.8352 668,88.5C 668.667,107.833 668.667,127.167 668,146.5C 665.954,158.879 658.788,166.379 646.5,169C 636.167,169.667 625.833,169.667 615.5,169C 603.349,165.847 596.516,158.014 595,145.5C 594.333,126.833 594.333,108.167 595,89.5C 597.645,77.6886 604.812,70.3553 616.5,67.5 Z"/></g>
<g><path style="opacity:1" fill="#34393c" d="M 688.5,67.5 C 691.448,67.2229 694.281,67.5562 697,68.5C 697.044,95.8738 697.71,123.207 699,150.5C 704.753,159.37 712.92,162.704 723.5,160.5C 734.26,162.531 742.76,159.198 749,150.5C 750.299,123.215 750.966,95.882 751,68.5C 754,67.1667 757,67.1667 760,68.5C 760.829,102.072 760.662,135.572 759.5,169C 756.571,169.777 753.737,169.61 751,168.5C 750.667,165.167 750.333,161.833 750,158.5C 748.123,163.373 744.623,166.54 739.5,168C 727.056,170.303 714.722,169.97 702.5,167C 693.805,162.445 688.972,155.278 688,145.5C 687.177,119.428 687.343,93.4278 688.5,67.5 Z"/></g>
<g><path style="opacity:1" fill="#373c40" d="M 881.5,67.5 C 892.549,67.1499 903.549,67.6499 914.5,69C 924.64,71.1397 930.806,77.3064 933,87.5C 933.5,99.4954 933.667,111.495 933.5,123.5C 912.497,123.333 891.497,123.5 870.5,124C 869.147,132.477 869.314,140.977 871,149.5C 872.474,154.974 875.974,158.474 881.5,160C 898.167,160.333 914.833,160.667 931.5,161C 932.833,163.667 932.833,166.333 931.5,169C 914.5,169.667 897.5,169.667 880.5,169C 867.92,165.688 861.087,157.522 860,144.5C 859.333,126.833 859.333,109.167 860,91.5C 861.787,78.5522 868.954,70.5522 881.5,67.5 Z"/></g>
<g><path style="opacity:1" fill="#cc1e41" d="M 119.5,67.5 C 125.425,67.1918 131.259,67.5251 137,68.5C 137.829,102.072 137.662,135.572 136.5,169C 130.584,169.807 124.75,169.641 119,168.5C 118.174,134.762 118.341,101.095 119.5,67.5 Z"/></g>
<g><path style="opacity:1" fill="#cc2142" d="M 178.5,67.5 C 196.88,67.1799 215.213,67.5132 233.5,68.5C 234.667,104.162 234.833,139.829 234,175.5C 231.276,190.889 222.11,199.389 206.5,201C 192.167,201.667 177.833,201.667 163.5,201C 163,200.5 162.5,200 162,199.5C 161.198,194.581 161.365,189.748 162.5,185C 176.167,184.667 189.833,184.333 203.5,184C 210.009,182.824 213.842,178.991 215,172.5C 215.831,166.141 215.664,159.807 214.5,153.5C 212.238,158.26 208.571,161.427 203.5,163C 165.244,169.911 149.244,154.078 155.5,115.5C 155.383,105.111 155.883,94.7776 157,84.5C 161.485,75.3522 168.652,69.6855 178.5,67.5 Z"/></g>
<g><path style="opacity:1" fill="#cc2142" d="M 254.5,67.5 C 259.844,67.334 265.177,67.5006 270.5,68C 271,68.5 271.5,69 272,69.5C 272.829,102.738 272.662,135.905 271.5,169C 268.5,169.167 265.5,169.333 262.5,169.5C 259.061,169.446 255.894,168.78 253,167.5C 252.333,134.833 252.333,102.167 253,69.5C 253.717,68.9558 254.217,68.2891 254.5,67.5 Z"/></g>
<g><path style="opacity:1" fill="#cc2042" d="M 377.5,67.5 C 394.837,67.3334 412.17,67.5001 429.5,68C 430,68.5 430.5,69 431,69.5C 431.829,102.738 431.662,135.905 430.5,169C 424.5,169.667 418.5,169.667 412.5,169C 411.707,165.589 411.207,162.089 411,158.5C 409.073,163.428 405.573,166.594 400.5,168C 391.896,169.542 383.23,169.876 374.5,169C 361.422,165.924 353.922,157.757 352,144.5C 351.333,126.5 351.333,108.5 352,90.5C 355.335,76.994 363.835,69.3274 377.5,67.5 Z"/></g>
<g><path style="opacity:1" fill="#fdfdfd" d="M 619.5,75.5 C 628.891,75.1473 638.225,75.6473 647.5,77C 652,78.8333 655.167,82 657,86.5C 658.631,106.769 658.964,127.102 658,147.5C 656.983,152.712 654.149,156.545 649.5,159C 638.907,160.595 628.24,160.928 617.5,160C 612.475,158.311 608.641,155.144 606,150.5C 604.382,130.552 604.049,110.552 605,90.5C 606.672,82.3295 611.505,77.3295 619.5,75.5 Z"/></g>
<g><path style="opacity:1" fill="#fcfcfc" d="M 884.5,75.5 C 892.174,75.3336 899.841,75.5003 907.5,76C 915.368,76.8719 920.534,81.0385 923,88.5C 923.5,97.4938 923.666,106.494 923.5,115.5C 905.5,115.5 887.5,115.5 869.5,115.5C 869.083,106.085 869.583,96.7521 871,87.5C 873.221,80.7704 877.721,76.7704 884.5,75.5 Z"/></g>
<g><path style="opacity:1" fill="#fefdfd" d="M 182.5,84.5 C 193.415,84.1797 204.248,84.513 215,85.5C 215.667,102.167 215.667,118.833 215,135.5C 214.08,140.188 211.58,143.688 207.5,146C 199.245,147.572 190.911,147.905 182.5,147C 180.04,145.542 177.873,143.709 176,141.5C 174.379,125.567 174.046,109.567 175,93.5C 176.268,89.4047 178.768,86.4047 182.5,84.5 Z"/></g>
<g><path style="opacity:1" fill="#fefcfd" d="M 379.5,84.5 C 390.167,84.5 400.833,84.5 411.5,84.5C 411.667,103.503 411.5,122.503 411,141.5C 407.683,151.248 400.85,154.914 390.5,152.5C 379.687,155.188 373.187,151.188 371,140.5C 370.333,125.5 370.333,110.5 371,95.5C 371.957,90.1959 374.79,86.5293 379.5,84.5 Z"/></g>
<g><path style="opacity:1" fill="#353a3d" d="M 796.5,67.5 C 810.171,67.3334 823.837,67.5001 837.5,68C 838.435,70.3806 838.768,72.8806 838.5,75.5C 825.496,75.3334 812.496,75.5001 799.5,76C 788.539,79.8436 785.039,87.3436 789,98.5C 789.785,100.286 790.951,101.786 792.5,103C 804.906,108.867 817.573,114.201 830.5,119C 840.38,124.087 844.713,132.254 843.5,143.5C 844.811,158.347 838.145,166.847 823.5,169C 808.837,169.5 794.17,169.667 779.5,169.5C 779.5,166.833 779.5,164.167 779.5,161.5C 794.211,161.894 808.878,161.394 823.5,160C 828.206,158.895 831.373,156.062 833,151.5C 834.752,142.938 833.252,135.105 828.5,128C 816.28,122.723 803.947,117.723 791.5,113C 787.421,110.925 783.921,108.092 781,104.5C 778.183,96.2541 777.85,87.9207 780,79.5C 780.883,76.8976 782.383,74.7309 784.5,73C 788.451,70.8548 792.451,69.0214 796.5,67.5 Z"/></g>
<g><path style="opacity:1" fill="#363b3f" d="M 967.5,68.5 C 968.873,68.3433 970.207,68.51 971.5,69C 995.987,84 1020.32,99.1667 1044.5,114.5C 1046.2,118.778 1045.53,122.611 1042.5,126C 1018.52,140.635 994.52,155.302 970.5,170C 969.552,170.483 968.552,170.649 967.5,170.5C 967.216,167.223 967.549,164.057 968.5,161C 991.502,147.501 1014.17,133.501 1036.5,119C 1013.67,105.084 990.998,90.917 968.5,76.5C 967.52,73.9135 967.187,71.2469 967.5,68.5 Z"/></g>
<g><path style="opacity:1" fill="#33383c" d="M 621.5,221.5 C 624.5,221.5 627.5,221.5 630.5,221.5C 630.5,224.5 630.5,227.5 630.5,230.5C 627.5,230.5 624.5,230.5 621.5,230.5C 621.5,227.5 621.5,224.5 621.5,221.5 Z"/></g>
<g><path style="opacity:1" fill="#373c40" d="M 809.5,221.5 C 812.833,221.5 816.167,221.5 819.5,221.5C 819.334,227.509 819.501,233.509 820,239.5C 820.833,238.667 821.667,237.833 822.5,237C 826.5,236.333 830.5,236.333 834.5,237C 837.945,238.388 840.111,240.888 841,244.5C 841.667,254.167 841.667,263.833 841,273.5C 837.943,274.451 834.777,274.784 831.5,274.5C 831.666,264.828 831.5,255.161 831,245.5C 827.108,243.933 823.442,244.267 820,246.5C 819.667,255.5 819.333,264.5 819,273.5C 815.943,274.451 812.777,274.784 809.5,274.5C 809.5,256.833 809.5,239.167 809.5,221.5 Z"/></g>
<g><path style="opacity:1" fill="#3a3f43" d="M 927.5,221.5 C 930.833,221.5 934.167,221.5 937.5,221.5C 937.5,239.167 937.5,256.833 937.5,274.5C 934.223,274.784 931.057,274.451 928,273.5C 927.5,256.17 927.333,238.837 927.5,221.5 Z"/></g>
<g><path style="opacity:1" fill="#353a3d" d="M 509.5,225.5 C 516.391,224.901 523.058,225.735 529.5,228C 531.049,229.214 532.215,230.714 533,232.5C 533.499,236.152 533.665,239.818 533.5,243.5C 530.5,243.5 527.5,243.5 524.5,243.5C 525.405,234.432 521.405,231.266 512.5,234C 511.333,234.5 510.5,235.333 510,236.5C 509.333,245.833 509.333,255.167 510,264.5C 510.5,265 511,265.5 511.5,266C 515.167,266.667 518.833,266.667 522.5,266C 524.314,263.519 524.98,260.685 524.5,257.5C 527.5,257.5 530.5,257.5 533.5,257.5C 533.665,260.85 533.498,264.183 533,267.5C 532.315,270.057 530.815,271.891 528.5,273C 521.567,274.506 514.567,274.839 507.5,274C 505.376,272.878 503.543,271.378 502,269.5C 500.396,257.571 500.063,245.571 501,233.5C 502.73,229.57 505.564,226.903 509.5,225.5 Z"/></g>
<g><path style="opacity:1" fill="#353a3e" d="M 744.5,225.5 C 751.391,224.901 758.058,225.735 764.5,228C 768.096,231.735 769.429,236.235 768.5,241.5C 765.813,241.664 763.146,241.497 760.5,241C 759.445,234.127 755.445,231.793 748.5,234C 745.651,236.559 744.817,239.726 746,243.5C 746.75,244.126 747.584,244.626 748.5,245C 753.454,246.184 758.454,247.184 763.5,248C 766.663,249.48 768.496,251.98 769,255.5C 770.704,262.283 769.204,268.117 764.5,273C 755.996,275.322 747.662,274.989 739.5,272C 736.923,268.248 735.923,264.081 736.5,259.5C 739.5,259.5 742.5,259.5 745.5,259.5C 745.104,262.044 745.771,264.211 747.5,266C 751.167,266.667 754.833,266.667 758.5,266C 760.703,263.24 761.036,260.24 759.5,257C 753.512,255.334 747.512,253.667 741.5,252C 739.622,250.457 738.122,248.624 737,246.5C 736.333,241.833 736.333,237.167 737,232.5C 738.742,229.254 741.242,226.921 744.5,225.5 Z"/></g>
<g><path style="opacity:1" fill="#363b3f" d="M 547.5,236.5 C 553.509,236.334 559.509,236.501 565.5,237C 569,237.833 571.167,240 572,243.5C 572.667,251.5 572.667,259.5 572,267.5C 571.293,269.081 570.46,270.581 569.5,272C 561.631,274.895 553.631,275.228 545.5,273C 544.667,272.167 543.833,271.333 543,270.5C 541.389,261.268 541.055,251.935 542,242.5C 543.36,239.977 545.193,237.977 547.5,236.5 Z"/></g>
<g><path style="opacity:1" fill="#383d41" d="M 603.5,221.5 C 606.5,221.5 609.5,221.5 612.5,221.5C 612.667,238.837 612.5,256.17 612,273.5C 609.281,274.444 606.448,274.777 603.5,274.5C 603.657,273.127 603.49,271.793 603,270.5C 601.681,272.487 599.848,273.654 597.5,274C 583.153,275.982 577.153,269.649 579.5,255C 577.965,239.868 584.632,233.868 599.5,237C 600.667,238.167 601.833,239.333 603,240.5C 603.5,234.175 603.666,227.842 603.5,221.5 Z"/></g>
<g><path style="opacity:1" fill="#33383c" d="M 621.5,236.5 C 624.5,236.5 627.5,236.5 630.5,236.5C 630.5,249.167 630.5,261.833 630.5,274.5C 627.5,274.5 624.5,274.5 621.5,274.5C 621.5,261.833 621.5,249.167 621.5,236.5 Z"/></g>
<g><path style="opacity:1" fill="#353a3e" d="M 639.5,236.5 C 642.833,236.5 646.167,236.5 649.5,236.5C 649.443,240.133 650.443,240.3 652.5,237C 656.833,236.333 661.167,236.333 665.5,237C 668.381,238.251 670.214,240.417 671,243.5C 671.5,253.828 671.666,264.161 671.5,274.5C 668.5,274.5 665.5,274.5 662.5,274.5C 662.666,265.161 662.5,255.827 662,246.5C 660.352,244.972 658.352,244.305 656,244.5C 653.648,244.305 651.648,244.972 650,246.5C 649.5,255.827 649.334,265.161 649.5,274.5C 646.167,274.5 642.833,274.5 639.5,274.5C 639.5,261.833 639.5,249.167 639.5,236.5 Z"/></g>
<g><path style="opacity:1" fill="#34393d" d="M 686.5,236.5 C 694.5,236.5 702.5,236.5 710.5,236.5C 710.968,251.93 710.468,267.263 709,282.5C 707.048,284.894 704.548,286.394 701.5,287C 695.175,287.5 688.842,287.666 682.5,287.5C 682.5,284.833 682.5,282.167 682.5,279.5C 687.844,279.666 693.177,279.499 698.5,279C 700.954,278.057 701.954,276.224 701.5,273.5C 701.333,272.167 701.167,270.833 701,269.5C 695.588,274.154 689.754,274.654 683.5,271C 681.959,269.421 680.792,267.587 680,265.5C 679.333,258.167 679.333,250.833 680,243.5C 681.018,239.985 683.185,237.652 686.5,236.5 Z"/></g>
<g><path style="opacity:1" fill="#34393d" d="M 784.5,236.5 C 790.5,236.5 796.5,236.5 802.5,236.5C 802.5,239.167 802.5,241.833 802.5,244.5C 797.821,244.334 793.155,244.501 788.5,245C 788,245.5 787.5,246 787,246.5C 786.333,252.5 786.333,258.5 787,264.5C 787.5,265 788,265.5 788.5,266C 792.833,266.333 797.167,266.667 801.5,267C 802.435,269.381 802.768,271.881 802.5,274.5C 796.491,274.666 790.491,274.499 784.5,274C 781,273.167 778.833,271 778,267.5C 777.333,259.5 777.333,251.5 778,243.5C 779.018,239.985 781.185,237.652 784.5,236.5 Z"/></g>
<g><path style="opacity:1" fill="#353a3e" d="M 855.5,236.5 C 861.509,236.334 867.509,236.501 873.5,237C 877,237.833 879.167,240 880,243.5C 880.667,251.5 880.667,259.5 880,267.5C 878.878,269.624 877.378,271.457 875.5,273C 868.901,274.496 862.234,274.829 855.5,274C 853.714,273.215 852.214,272.049 851,270.5C 849.389,261.268 849.055,251.935 850,242.5C 851.36,239.977 853.193,237.977 855.5,236.5 Z"/></g>
<g><path style="opacity:1" fill="#363b3f" d="M 894.5,236.5 C 900.509,236.334 906.509,236.501 912.5,237C 915.728,238.563 917.895,241.063 919,244.5C 919.667,251.5 919.667,258.5 919,265.5C 918.394,268.548 916.894,271.048 914.5,273C 907.167,275 899.833,275 892.5,273C 890.106,271.048 888.606,268.548 888,265.5C 887.333,258.5 887.333,251.5 888,244.5C 889.305,241.039 891.471,238.372 894.5,236.5 Z"/></g>
<g><path style="opacity:1" fill="#fdfdfd" d="M 551.5,244.5 C 555.673,243.956 559.506,244.623 563,246.5C 563.667,252.5 563.667,258.5 563,264.5C 562.5,265 562,265.5 561.5,266C 557.909,266.789 554.409,266.622 551,265.5C 550.205,258.42 550.372,251.42 551.5,244.5 Z"/></g>
<g><path style="opacity:1" fill="#f9f9f9" d="M 590.5,244.5 C 593.85,244.335 597.183,244.502 600.5,245C 601.333,245.833 602.167,246.667 603,247.5C 603.667,252.5 603.667,257.5 603,262.5C 602.535,263.931 601.701,265.097 600.5,266C 596.909,266.789 593.409,266.622 590,265.5C 589.205,258.42 589.372,251.42 590.5,244.5 Z"/></g>
<g><path style="opacity:1" fill="#fafafa" d="M 690.5,244.5 C 694.167,244.5 697.833,244.5 701.5,244.5C 701.666,250.176 701.499,255.843 701,261.5C 699.872,263.99 697.872,264.99 695,264.5C 692.648,264.695 690.648,264.028 689,262.5C 688.333,257.167 688.333,251.833 689,246.5C 689.717,245.956 690.217,245.289 690.5,244.5 Z"/></g>
<g><path style="opacity:1" fill="#f8f8f9" d="M 859.5,244.5 C 862.85,244.335 866.183,244.502 869.5,245C 870,245.5 870.5,246 871,246.5C 871.667,252.5 871.667,258.5 871,264.5C 870.5,265 870,265.5 869.5,266C 866.167,266.667 862.833,266.667 859.5,266C 859,265.5 858.5,265 858,264.5C 857.333,258.5 857.333,252.5 858,246.5C 858.717,245.956 859.217,245.289 859.5,244.5 Z"/></g>
<g><path style="opacity:1" fill="#fdfdfd" d="M 898.5,244.5 C 902.673,243.956 906.506,244.623 910,246.5C 910.667,252.5 910.667,258.5 910,264.5C 909.5,265 909,265.5 908.5,266C 904.909,266.789 901.409,266.622 898,265.5C 897.205,258.42 897.372,251.42 898.5,244.5 Z"/></g>
</svg>
