<svg width="71" height="69" viewBox="0 0 71 69" fill="none" xmlns="http://www.w3.org/2000/svg">
<path d="M23.6656 55.5478C23.6656 55.8331 23.3375 56.0614 22.9238 56.0614C22.4531 56.1042 22.125 55.8759 22.125 55.5478C22.125 55.2625 22.4531 55.0343 22.8668 55.0343C23.2947 54.9915 23.6656 55.2197 23.6656 55.5478ZM19.2292 54.9059C19.1293 55.1912 19.4146 55.5193 19.8426 55.6049C20.2135 55.7475 20.6414 55.6049 20.727 55.3196C20.8126 55.0343 20.5416 54.7062 20.1136 54.5778C19.7427 54.4779 19.329 54.6206 19.2292 54.9059ZM25.5343 54.6634C25.1206 54.7632 24.8353 55.0343 24.8781 55.3624C24.9209 55.6477 25.2918 55.8331 25.7198 55.7333C26.1334 55.6334 26.4187 55.3624 26.3759 55.0771C26.3331 54.806 25.948 54.6206 25.5343 54.6634ZM34.9207 0C15.1351 0 0 15.021 0 34.8065C0 50.6264 9.95695 64.1639 24.1791 68.9284C26.0051 69.2565 26.647 68.1295 26.647 67.2023C26.647 66.3179 26.6042 61.4393 26.6042 58.4436C26.6042 58.4436 16.6187 60.5834 14.5217 54.1926C14.5217 54.1926 12.8955 50.0415 10.5561 48.9717C10.5561 48.9717 7.2894 46.7321 10.7843 46.7749C10.7843 46.7749 14.3363 47.0602 16.2906 50.4552C19.4146 55.9615 24.6499 54.3781 26.6898 53.4366C27.0179 51.1542 27.9451 49.5708 28.9722 48.6293C20.998 47.7449 12.9526 46.5894 12.9526 32.8665C12.9526 28.9436 14.0367 26.9751 16.3191 24.4644C15.9482 23.5372 14.7357 19.7142 16.69 14.7785C19.6714 13.8513 26.5329 18.6301 26.5329 18.6301C29.3858 17.8312 32.4528 17.4175 35.4913 17.4175C38.5297 17.4175 41.5967 17.8312 44.4497 18.6301C44.4497 18.6301 51.3111 13.837 54.2925 14.7785C56.2468 19.7285 55.0343 23.5372 54.6634 24.4644C56.9458 26.9893 58.3437 28.9579 58.3437 32.8665C58.3437 46.6322 49.9417 47.7306 41.9676 48.6293C43.2799 49.7562 44.3926 51.896 44.3926 55.2483C44.3926 60.0556 44.3498 66.004 44.3498 67.1738C44.3498 68.101 45.006 69.2279 46.8177 68.8998C61.0826 64.1639 70.7543 50.6264 70.7543 34.8065C70.7543 15.021 54.7062 0 34.9207 0ZM13.8656 49.1999C13.6801 49.3426 13.7229 49.6707 13.9654 49.9417C14.1937 50.1699 14.5217 50.2698 14.7072 50.0843C14.8926 49.9417 14.8498 49.6136 14.6073 49.3426C14.3791 49.1143 14.051 49.0145 13.8656 49.1999ZM12.3249 48.0444C12.2251 48.2299 12.3677 48.4581 12.653 48.6008C12.8813 48.7434 13.1666 48.7006 13.2664 48.5009C13.3663 48.3155 13.2236 48.0872 12.9383 47.9446C12.653 47.859 12.4248 47.9018 12.3249 48.0444ZM16.9468 53.1228C16.7186 53.3082 16.8041 53.7362 17.1322 54.0072C17.4603 54.3353 17.874 54.3781 18.0595 54.1499C18.2449 53.9644 18.1593 53.5365 17.874 53.2654C17.5602 52.9373 17.1322 52.8945 16.9468 53.1228ZM15.3206 51.0258C15.0923 51.1685 15.0923 51.5394 15.3206 51.8675C15.5488 52.1956 15.934 52.3382 16.1194 52.1955C16.3477 52.0101 16.3477 51.6392 16.1194 51.3111C15.9197 50.983 15.5488 50.8404 15.3206 51.0258Z" fill="black"/>
</svg>
