<svg width="97" height="97" viewBox="0 0 97 97" fill="none" xmlns="http://www.w3.org/2000/svg">
<path d="M85.9091 0H10.3091C4.61761 0 0 4.61761 0 10.3091V85.9091C0 91.6006 4.61761 96.2182 10.3091 96.2182H85.9091C91.6006 96.2182 96.2182 91.6006 96.2182 85.9091V10.3091C96.2182 4.61761 91.6006 0 85.9091 0ZM52.3616 75.0416C52.3616 84.4057 46.8634 88.6797 38.8524 88.6797C31.6145 88.6797 27.4265 84.9426 25.2787 80.4109L32.6455 75.9651C34.063 78.478 35.3516 80.6042 38.4658 80.6042C41.4297 80.6042 43.3197 79.4444 43.3197 74.9127V44.1787H52.3616V75.0416ZM73.7529 88.6797C65.3553 88.6797 59.9216 84.6849 57.2799 79.4444L64.6466 75.1919C66.5795 78.3491 69.1139 80.6901 73.5597 80.6901C77.2967 80.6901 79.7022 78.8216 79.7022 76.2228C79.7022 73.1301 77.2537 72.0348 73.1086 70.2092L70.8535 69.2427C64.3244 66.4722 60.0075 62.9714 60.0075 55.6047C60.0075 48.8178 65.1835 43.6633 73.2375 43.6633C78.9934 43.6633 83.117 45.6607 86.0809 50.9011L79.0364 55.4114C77.49 52.6408 75.8148 51.5455 73.216 51.5455C70.5743 51.5455 68.8991 53.2207 68.8991 55.4114C68.8991 58.1175 70.5743 59.2128 74.4617 60.9095L76.7168 61.876C84.4057 65.162 88.7226 68.534 88.7226 76.094C88.7226 84.2124 82.3224 88.6797 73.7529 88.6797Z" fill="white"/>
</svg>


