<svg width="72" height="72" viewBox="0 0 72 72" fill="none" xmlns="http://www.w3.org/2000/svg">
<path d="M66.1764 0.827118H5.51404C2.7344 0.827118 0.475952 3.11716 0.475952 5.92838V66.4801C0.475952 69.2914 2.7344 71.5814 5.51404 71.5814H66.1764C68.956 71.5814 71.2302 69.2914 71.2302 66.4801V5.92838C71.2302 3.11716 68.956 0.827118 66.1764 0.827118ZM21.8602 61.4736H11.3734V27.7074H21.876V61.4736H21.8602ZM16.6168 23.0958C13.2528 23.0958 10.5363 20.3635 10.5363 17.0153C10.5363 13.6671 13.2528 10.9349 16.6168 10.9349C19.965 10.9349 22.6972 13.6671 22.6972 17.0153C22.6972 20.3793 19.9808 23.0958 16.6168 23.0958ZM61.1699 61.4736H50.6831V45.0485C50.6831 41.1318 50.6041 36.0937 45.2344 36.0937C39.7698 36.0937 38.9328 40.3579 38.9328 44.7643V61.4736H28.446V27.7074H38.5064V32.3191H38.6485C40.0541 29.6658 43.4813 26.8704 48.5825 26.8704C59.1957 26.8704 61.1699 33.8668 61.1699 42.9638V61.4736Z" fill="black"/>
</svg>
