<svg width="59" height="49" viewBox="0 0 59 49" fill="none" xmlns="http://www.w3.org/2000/svg">
<path d="M9.86677 37.1483H2.59754C2.11556 37.1483 1.65332 37.3398 1.3125 37.6806C0.971693 38.0214 0.780228 38.4837 0.780228 38.9656L0.780228 46.2349C0.780228 46.7169 0.971693 47.1791 1.3125 47.5199C1.65332 47.8607 2.11556 48.0522 2.59754 48.0522H9.86677C10.3487 48.0522 10.811 47.8607 11.1518 47.5199C11.4926 47.1791 11.6841 46.7169 11.6841 46.2349V38.9656C11.6841 38.4837 11.4926 38.0214 11.1518 37.6806C10.811 37.3398 10.3487 37.1483 9.86677 37.1483ZM9.86677 0.802185H2.59754C2.11556 0.802185 1.65332 0.993651 1.3125 1.33446C0.971693 1.67527 0.780228 2.13751 0.780228 2.61949L0.780228 9.88872C0.780228 10.3707 0.971693 10.8329 1.3125 11.1738C1.65332 11.5146 2.11556 11.706 2.59754 11.706H9.86677C10.3487 11.706 10.811 11.5146 11.1518 11.1738C11.4926 10.8329 11.6841 10.3707 11.6841 9.88872V2.61949C11.6841 2.13751 11.4926 1.67527 11.1518 1.33446C10.811 0.993651 10.3487 0.802185 9.86677 0.802185ZM9.86677 18.9753H2.59754C2.11556 18.9753 1.65332 19.1667 1.3125 19.5075C0.971693 19.8484 0.780228 20.3106 0.780228 20.7926L0.780228 28.0618C0.780228 28.5438 0.971693 29.006 1.3125 29.3468C1.65332 29.6876 2.11556 29.8791 2.59754 29.8791H9.86677C10.3487 29.8791 10.811 29.6876 11.1518 29.3468C11.4926 29.006 11.6841 28.5438 11.6841 28.0618V20.7926C11.6841 20.3106 11.4926 19.8484 11.1518 19.5075C10.811 19.1667 10.3487 18.9753 9.86677 18.9753ZM57.1168 38.9656H20.7706C20.2886 38.9656 19.8264 39.1571 19.4856 39.4979C19.1448 39.8387 18.9533 40.301 18.9533 40.783V44.4176C18.9533 44.8996 19.1448 45.3618 19.4856 45.7026C19.8264 46.0434 20.2886 46.2349 20.7706 46.2349H57.1168C57.5987 46.2349 58.061 46.0434 58.4018 45.7026C58.7426 45.3618 58.9341 44.8996 58.9341 44.4176V40.783C58.9341 40.301 58.7426 39.8387 58.4018 39.4979C58.061 39.1571 57.5987 38.9656 57.1168 38.9656ZM57.1168 2.61949H20.7706C20.2886 2.61949 19.8264 2.81096 19.4856 3.15177C19.1448 3.49258 18.9533 3.95482 18.9533 4.4368V8.07142C18.9533 8.5534 19.1448 9.01563 19.4856 9.35645C19.8264 9.69726 20.2886 9.88872 20.7706 9.88872H57.1168C57.5987 9.88872 58.061 9.69726 58.4018 9.35645C58.7426 9.01563 58.9341 8.5534 58.9341 8.07142V4.4368C58.9341 3.95482 58.7426 3.49258 58.4018 3.15177C58.061 2.81096 57.5987 2.61949 57.1168 2.61949ZM57.1168 20.7926H20.7706C20.2886 20.7926 19.8264 20.984 19.4856 21.3248C19.1448 21.6657 18.9533 22.1279 18.9533 22.6099V26.2445C18.9533 26.7265 19.1448 27.1887 19.4856 27.5295C19.8264 27.8703 20.2886 28.0618 20.7706 28.0618H57.1168C57.5987 28.0618 58.061 27.8703 58.4018 27.5295C58.7426 27.1887 58.9341 26.7265 58.9341 26.2445V22.6099C58.9341 22.1279 58.7426 21.6657 58.4018 21.3248C58.061 20.984 57.5987 20.7926 57.1168 20.7926Z" fill="#161212"/>
</svg>
