<?xml version="1.0" standalone="no"?>
<!DOCTYPE svg PUBLIC "-//W3C//DTD SVG 20010904//EN"
 "http://www.w3.org/TR/2001/REC-SVG-20010904/DTD/svg10.dtd">
<svg version="1.0" xmlns="http://www.w3.org/2000/svg"
 width="50.000000pt" height="50.000000pt" viewBox="0 0 50.000000 50.000000"
 preserveAspectRatio="xMidYMid meet">

<g transform="translate(0.000000,50.000000) scale(0.100000,-0.100000)"
fill="#000000" stroke="none">
<path d="M45 447 c-3 -7 -4 -100 -3 -207 l3 -195 205 0 205 0 0 205 0 205
-203 3 c-159 2 -204 0 -207 -11z m395 -197 l0 -190 -190 0 -190 0 0 190 0 190
190 0 190 0 0 -190z"/>
<path d="M97 293 c-11 -10 -8 -83 2 -83 5 0 12 8 14 18 4 16 5 16 6 0 2 -26
19 -22 24 5 l4 22 2 -22 c0 -13 6 -23 11 -23 11 0 14 49 4 74 -9 23 -24 20
-24 -4 0 -11 -4 -20 -10 -20 -5 0 -10 9 -10 20 0 20 -11 26 -23 13z"/>
<path d="M240 282 c0 -10 6 -24 12 -30 10 -10 10 -15 -2 -22 -18 -11 -6 -25
15 -17 20 8 19 46 -1 54 -15 6 -15 8 2 20 17 12 17 13 -4 13 -15 0 -22 -6 -22
-18z"/>
<path d="M296 285 c-15 -39 -4 -68 29 -79 19 -5 21 -2 20 41 0 41 -3 48 -21
51 -13 2 -24 -4 -28 -13z m34 -25 c0 -16 -4 -30 -10 -30 -11 0 -14 43 -3 53
11 12 13 8 13 -23z"/>
<path d="M360 255 c0 -43 2 -45 28 -45 24 1 25 2 10 14 -11 8 -18 26 -18 45 0
17 -4 31 -10 31 -5 0 -10 -20 -10 -45z"/>
<path d="M184 231 c1 -51 1 -52 19 -30 9 11 17 27 17 34 0 7 3 20 6 29 3 9 1
16 -5 16 -6 0 -11 -8 -11 -17 0 -15 -1 -15 -13 1 -12 16 -13 12 -13 -33z"/>
</g>
</svg>
