<svg width="97" height="85" viewBox="0 0 97 85" fill="none" xmlns="http://www.w3.org/2000/svg">
<path d="M78.5907 27.5572C77.5759 27.219 76.5611 26.8995 75.5463 26.5988C75.7154 25.9035 75.8658 25.2082 76.0161 24.5128C78.3276 13.3124 76.8054 4.31078 71.675 1.34155C66.7326 -1.49614 58.6705 1.4543 50.5145 8.55791C49.7065 9.25324 48.9172 9.98615 48.1655 10.7191C47.6581 10.2305 47.1319 9.74185 46.6057 9.27203C38.055 1.67982 29.4856 -1.51493 24.3552 1.4731C19.4316 4.32957 17.9657 12.805 20.0329 23.4041C20.2396 24.4565 20.4652 25.4901 20.7283 26.5424C19.5255 26.8807 18.3416 27.2566 17.2328 27.6512C7.19757 31.1278 0 36.6153 0 42.2907C0 48.1539 7.66739 54.036 18.0973 57.6066C18.943 57.8885 19.7886 58.1704 20.6531 58.4147C20.3712 59.5423 20.1269 60.651 19.9014 61.7974C17.9282 72.2273 19.4691 80.496 24.3928 83.3337C29.4668 86.2654 37.9987 83.2585 46.305 75.9858C46.9627 75.4032 47.6205 74.8019 48.2782 74.1629C49.1051 74.971 49.9696 75.7415 50.834 76.4932C58.8773 83.4089 66.8265 86.209 71.7314 83.3713C76.8054 80.4397 78.4592 71.5508 76.3168 60.7262C76.1477 59.8993 75.9597 59.0537 75.753 58.1892C76.3544 58.0201 76.937 57.8321 77.5195 57.6442C88.3629 54.0548 96.2182 48.2479 96.2182 42.2907C96.2182 36.5965 88.8139 31.0715 78.5907 27.5572ZM53.1643 11.6023C60.1552 5.51351 66.6762 3.12685 69.6454 4.83698C72.8214 6.65986 74.0429 14.0266 72.0509 23.7048C71.9193 24.3437 71.7878 24.9639 71.6186 25.584C67.4467 24.6444 63.2183 23.9679 58.9712 23.592C56.5282 20.0966 53.8596 16.7515 50.9656 13.6131C51.6985 12.9178 52.4126 12.2601 53.1643 11.6023ZM31.4212 52.044C32.3797 53.679 33.3569 55.3139 34.3905 56.9113C31.4588 56.5918 28.546 56.122 25.6707 55.5019C26.4976 52.7957 27.5312 49.9956 28.7339 47.1391C29.5984 48.7929 30.4816 50.4279 31.4212 52.044ZM25.7271 29.4365C28.4332 28.8351 31.3085 28.3465 34.2965 27.9707C33.3005 29.5305 32.3233 31.1278 31.4025 32.744C30.4816 34.3414 29.5796 35.9763 28.7339 37.6301C27.55 34.83 26.554 32.0863 25.7271 29.4365ZM30.8763 42.3846C32.1166 39.7912 33.4696 37.2542 34.8979 34.7548C36.3261 32.2554 37.8671 29.8312 39.4833 27.4445C42.3022 27.2378 45.1774 27.125 48.1091 27.125C51.0407 27.125 53.9348 27.2378 56.7349 27.4445C58.3323 29.8124 59.8545 32.2366 61.3015 34.7172C62.7485 37.1979 64.1016 39.7349 65.3795 42.3094C64.1204 44.9028 62.7673 47.4586 61.3203 49.9768C59.8921 52.4762 58.3699 54.9005 56.7725 57.3059C53.9724 57.5127 51.0595 57.6066 48.1091 57.6066C45.1586 57.6066 42.3022 57.5127 39.5397 57.3435C37.9047 54.9569 36.3637 52.5138 34.9167 50.0144C33.4696 47.515 32.1354 44.978 30.8763 42.3846ZM64.8157 52.0064C65.7741 50.3527 66.6762 48.6801 67.5594 46.9888C68.7622 49.7137 69.8146 52.4762 70.7354 55.3139C67.8225 55.9717 64.8721 56.4791 61.9029 56.8173C62.9177 55.2388 63.8761 53.6226 64.8157 52.0064ZM67.5219 37.6301C66.6386 35.9763 65.7366 34.3226 64.7969 32.7064C63.8761 31.109 62.9177 29.5305 61.9217 27.9707C64.9473 28.3465 67.8413 28.8539 70.5475 29.4741C69.683 32.2554 68.6682 34.9615 67.5219 37.6301ZM48.1467 16.4884C50.1199 18.6308 51.9804 20.8859 53.7093 23.2162C49.9883 23.047 46.2486 23.047 42.5277 23.2162C44.3694 20.7919 46.2674 18.5368 48.1467 16.4884ZM26.3472 4.96852C29.5044 3.12685 36.514 5.75781 43.8995 12.2976C44.3694 12.7111 44.8392 13.1621 45.3278 13.6131C42.4149 16.7515 39.7276 20.0966 37.2658 23.592C33.0186 23.9679 28.8091 24.6256 24.6371 25.5464C24.3928 24.588 24.1861 23.6108 23.9794 22.6336C22.2129 13.538 23.378 6.67865 26.3472 4.96852ZM21.7431 54.5059C20.9538 54.2803 20.1833 54.036 19.4128 53.7729C15.4099 52.5138 10.8621 50.5218 7.57342 47.9096C5.67537 46.5942 4.39747 44.5646 4.04041 42.2907C4.04041 38.8516 9.97888 34.4541 18.5483 31.4661C19.6195 31.0903 20.7095 30.752 21.7994 30.4325C23.0773 34.5105 24.6183 38.5133 26.4036 42.3846C24.5995 46.3123 23.0397 50.3715 21.7431 54.5059ZM43.6552 72.9226C40.5545 75.7603 36.9651 78.0154 33.0562 79.5564C30.9702 80.5524 28.5648 80.6464 26.4224 79.8007C23.4344 78.0718 22.1941 71.438 23.8854 62.5115C24.0921 61.4591 24.3176 60.4067 24.5807 59.3731C28.7903 60.2752 33.0374 60.8953 37.3409 61.2148C39.8215 64.729 42.5465 68.0929 45.4593 71.2501C44.858 71.8326 44.2566 72.3964 43.6552 72.9226ZM48.2594 68.356C46.3426 66.2888 44.4257 63.9961 42.5653 61.5343C44.3694 61.6095 46.2298 61.647 48.1091 61.647C50.0447 61.647 51.9428 61.6095 53.822 61.5155C52.0931 63.9022 50.2327 66.1761 48.2594 68.356ZM72.8214 73.9938C72.6522 76.2865 71.5247 78.4288 69.7206 79.8759C66.7326 81.6048 60.3619 79.3497 53.4838 73.4488C52.6945 72.7723 51.9052 72.0394 51.0971 71.2877C53.9724 68.1117 56.6221 64.7478 59.0276 61.2148C63.3311 60.8578 67.6158 60.2 71.8442 59.2416C72.0321 60.0121 72.2012 60.7826 72.3516 61.5343C73.2724 65.5935 73.4227 69.8218 72.8214 73.9938ZM76.2416 53.7917C75.7154 53.9609 75.1892 54.13 74.6443 54.2803C73.3288 50.1835 71.7126 46.1807 69.8521 42.2907C71.6562 38.457 73.1784 34.5105 74.4563 30.4701C75.4336 30.752 76.3732 31.0527 77.2752 31.3533C86.0326 34.3602 92.1778 38.8328 92.1778 42.2531C92.1778 45.9364 85.6191 50.6909 76.2416 53.7917ZM48.1091 50.9728C52.8636 50.9728 56.7161 47.1204 56.7161 42.3658C56.7161 37.6113 52.8636 33.7588 48.1091 33.7588C43.3546 33.7588 39.5021 37.6113 39.5021 42.3658C39.5021 47.1204 43.3546 50.9728 48.1091 50.9728Z" fill="black"/>
</svg>
