<?xml version="1.0" encoding="UTF-8"?>
<!DOCTYPE svg PUBLIC "-//W3C//DTD SVG 1.1//EN" "http://www.w3.org/Graphics/SVG/1.1/DTD/svg11.dtd">
<svg xmlns="http://www.w3.org/2000/svg" version="1.1" width="688px" height="362px" style="shape-rendering:geometricPrecision; text-rendering:geometricPrecision; image-rendering:optimizeQuality; fill-rule:evenodd; clip-rule:evenodd" xmlns:xlink="http://www.w3.org/1999/xlink">
<g><path style="opacity:1" fill="#196ba2" d="M 259.5,161.5 C 259.427,163.027 260.094,164.027 261.5,164.5C 264.802,168.809 268.136,173.143 271.5,177.5C 272.5,180.5 274.5,182.5 277.5,183.5C 297.518,200.339 320.518,211.006 346.5,215.5C 356.623,217.787 366.957,218.12 377.5,216.5C 380.152,216.59 382.485,215.924 384.5,214.5C 387.728,213.454 391.061,212.788 394.5,212.5C 396.898,212.741 398.898,212.074 400.5,210.5C 407.829,207.503 415.162,204.503 422.5,201.5C 424.027,201.573 425.027,200.906 425.5,199.5C 426.514,198.326 427.847,197.66 429.5,197.5C 431.027,197.573 432.027,196.906 432.5,195.5C 434.027,195.573 435.027,194.906 435.5,193.5C 437.027,193.573 438.027,192.906 438.5,191.5C 439.262,189.738 440.596,188.738 442.5,188.5C 447.5,185.5 451.5,181.5 454.5,176.5C 455.701,174.091 457.367,172.091 459.5,170.5C 460.906,170.027 461.573,169.027 461.5,167.5C 461.66,165.847 462.326,164.514 463.5,163.5C 464.906,163.027 465.573,162.027 465.5,160.5C 466.326,157.515 467.659,154.849 469.5,152.5C 471.02,150.11 472.02,147.443 472.5,144.5C 474.258,141.146 475.258,137.479 475.5,133.5C 476.768,131.095 477.435,128.428 477.5,125.5C 477.5,125.167 477.5,124.833 477.5,124.5C 478.338,124.158 478.672,123.492 478.5,122.5C 479.451,123.919 479.784,125.585 479.5,127.5C 471.39,179.205 443.39,215.705 395.5,237C 366.581,248.225 337.248,250.058 307.5,242.5C 305.485,241.076 303.152,240.41 300.5,240.5C 291.116,238.377 282.449,234.71 274.5,229.5C 274.027,228.094 273.027,227.427 271.5,227.5C 267.148,225.327 263.148,222.66 259.5,219.5C 259.027,218.094 258.027,217.427 256.5,217.5C 226.02,193.223 208.52,161.556 204,122.5C 203.333,89.1667 203.333,55.8333 204,22.5C 205.008,20.741 206.508,19.5743 208.5,19C 219.167,18.3333 229.833,18.3333 240.5,19C 242.049,20.214 243.215,21.714 244,23.5C 244.111,53.8519 244.778,84.1852 246,114.5C 247.775,130.986 252.275,146.653 259.5,161.5 Z M 475.5,133.5 C 473.354,133.304 473.188,132.304 475,130.5C 475.483,131.448 475.649,132.448 475.5,133.5 Z M 472.5,140.5 C 472.5,141.833 472.5,143.167 472.5,144.5C 471.442,145.6 470.608,146.934 470,148.5C 469.978,145.549 470.811,142.883 472.5,140.5 Z"/></g>
<g><path style="opacity:0.997" fill="#848588" d="M 474.5,21.5 C 477.206,53.4893 477.039,85.4893 474,117.5C 471.6,134.542 465.767,150.209 456.5,164.5C 453.484,167.52 450.817,170.854 448.5,174.5C 445.167,177.167 442.167,180.167 439.5,183.5C 439.167,184.5 438.5,185.167 437.5,185.5C 434.527,187.147 431.86,189.147 429.5,191.5C 429.5,192.167 429.167,192.5 428.5,192.5C 411.448,202.351 393.114,208.518 373.5,211C 366.654,211.821 359.987,211.654 353.5,210.5C 383.891,204.248 408.058,188.581 426,163.5C 432.691,152.428 436.357,140.428 437,127.5C 437.333,92.8333 437.667,58.1667 438,23.5C 438.833,21.3333 440.333,19.8333 442.5,19C 452.167,18.3333 461.833,18.3333 471.5,19C 473.119,19.2355 474.119,20.0689 474.5,21.5 Z"/></g>
<g><path style="opacity:1" fill="#1a6ca2" d="M 357.5,22.5 C 352.167,23.1667 346.833,23.8333 341.5,24.5C 307.485,29.0139 286.652,48.0139 279,81.5C 274.534,123.424 291.367,152.924 329.5,170C 363.874,181.194 394.041,174.36 420,149.5C 420.464,150.094 420.631,150.761 420.5,151.5C 408.062,173.585 389.395,187.752 364.5,194C 350.972,197.468 337.639,197.301 324.5,193.5C 322.485,192.076 320.152,191.41 317.5,191.5C 310.94,189.882 304.94,187.216 299.5,183.5C 299.027,182.094 298.027,181.427 296.5,181.5C 294.973,181.573 293.973,180.906 293.5,179.5C 293.027,178.094 292.027,177.427 290.5,177.5C 289.5,177.167 288.833,176.5 288.5,175.5C 288.027,174.094 287.027,173.427 285.5,173.5C 258.919,147.556 250.752,116.556 261,80.5C 262.996,74.2995 265.829,68.6328 269.5,63.5C 270.906,63.0269 271.573,62.0269 271.5,60.5C 273.208,56.4281 275.874,53.0948 279.5,50.5C 282.167,48.5 284.5,46.1667 286.5,43.5C 295.322,34.4174 305.988,28.4174 318.5,25.5C 321.152,25.5905 323.485,24.9238 325.5,23.5C 336.106,21.3025 346.773,20.9691 357.5,22.5 Z"/></g>
<g><path style="opacity:0.016" fill="#f5f6f7" d="M 474.5,21.5 C 475.117,21.6107 475.617,21.944 476,22.5C 477.013,47.9386 478.679,73.2719 481,98.5C 481.822,106.345 481.656,114.011 480.5,121.5C 480.665,118.482 480.498,115.482 480,112.5C 479.39,115.827 478.89,119.161 478.5,122.5C 478.672,123.492 478.338,124.158 477.5,124.5C 477.457,116.602 476.79,116.602 475.5,124.5C 475.667,125.5 475.833,126.5 476,127.5C 476.278,126.584 476.778,125.918 477.5,125.5C 477.435,128.428 476.768,131.095 475.5,133.5C 475.258,137.479 474.258,141.146 472.5,144.5C 472.02,147.443 471.02,150.11 469.5,152.5C 469.719,151.325 469.386,150.325 468.5,149.5C 465.552,154.843 461.552,159.843 456.5,164.5C 465.767,150.209 471.6,134.542 474,117.5C 477.039,85.4893 477.206,53.4893 474.5,21.5 Z M 475.5,133.5 C 475.649,132.448 475.483,131.448 475,130.5C 473.188,132.304 473.354,133.304 475.5,133.5 Z M 472.5,140.5 C 472.5,141.833 472.5,143.167 472.5,144.5C 471.442,145.6 470.608,146.934 470,148.5C 469.978,145.549 470.811,142.883 472.5,140.5 Z"/></g>
<g><path style="opacity:0.831" fill="#8fadbf" d="M 357.5,22.5 C 360.781,22.4203 363.781,23.087 366.5,24.5C 358.833,24.5 351.167,24.5 343.5,24.5C 342.833,24.5 342.167,24.5 341.5,24.5C 346.833,23.8333 352.167,23.1667 357.5,22.5 Z"/></g>
<g><path style="opacity:1" fill="#71a2c5" d="M 325.5,23.5 C 323.485,24.9238 321.152,25.5905 318.5,25.5C 320.515,24.0762 322.848,23.4095 325.5,23.5 Z"/></g>
<g><path style="opacity:0.997" fill="#86878a" d="M 343.5,24.5 C 351.167,24.5 358.833,24.5 366.5,24.5C 391.592,31.2193 410.592,45.8859 423.5,68.5C 413.183,69.6656 402.849,69.8323 392.5,69C 373.335,46.3965 349.668,40.0632 321.5,50C 302.799,58.5323 289.799,72.3656 282.5,91.5C 282.982,62.4683 296.649,41.9683 323.5,30C 330.271,28.0879 336.937,26.2546 343.5,24.5 Z"/></g>
<g><path style="opacity:0.096" fill="#dce0e3" d="M 341.5,24.5 C 342.167,24.5 342.833,24.5 343.5,24.5C 336.937,26.2546 330.271,28.0879 323.5,30C 296.649,41.9683 282.982,62.4683 282.5,91.5C 281.621,127.924 297.955,153.091 331.5,167C 344.357,171.404 357.357,172.237 370.5,169.5C 384.387,168.368 397.387,163.868 409.5,156C 413.397,152.469 417.564,149.303 422,146.5C 422.399,146.728 422.565,147.062 422.5,147.5C 422.34,149.153 421.674,150.486 420.5,151.5C 420.631,150.761 420.464,150.094 420,149.5C 394.041,174.36 363.874,181.194 329.5,170C 291.367,152.924 274.534,123.424 279,81.5C 286.652,48.0139 307.485,29.0139 341.5,24.5 Z"/></g>
<g><path style="opacity:0.667" fill="#94bcd5" d="M 286.5,43.5 C 284.5,46.1667 282.167,48.5 279.5,50.5C 280.833,47.1667 283.167,44.8333 286.5,43.5 Z"/></g>
<g><path style="opacity:0.494" fill="#96bdd5" d="M 271.5,60.5 C 271.573,62.0269 270.906,63.0269 269.5,63.5C 269.427,61.9731 270.094,60.9731 271.5,60.5 Z"/></g>
<g><path style="opacity:1" fill="#1784c2" d="M 340.5,68.5 C 341.167,68.5 341.833,68.5 342.5,68.5C 333.282,78.0191 331.115,89.0191 336,101.5C 346.527,117.173 360.027,120.34 376.5,111C 380.114,107.558 383.448,104.058 386.5,100.5C 387.833,105.167 387.833,109.833 386.5,114.5C 386.663,112.143 386.497,109.81 386,107.5C 372.085,122.597 356.585,124.43 339.5,113C 327.392,100.496 325.726,86.8289 334.5,72C 333.207,71.51 331.873,71.3433 330.5,71.5C 333.505,69.7234 336.838,68.7234 340.5,68.5 Z"/></g>
<g><path style="opacity:1" fill="#239bdb" d="M 340.5,68.5 C 344.981,67.3516 349.648,67.1849 354.5,68C 357.104,68.3903 359.438,69.2237 361.5,70.5C 350.848,72.1707 344.515,78.3374 342.5,89C 346.344,105.726 356.011,110.393 371.5,103C 373.956,100.592 375.789,97.7591 377,94.5C 377.249,89.9534 377.415,85.62 377.5,81.5C 381.01,84.3577 383.343,88.0243 384.5,92.5C 384.5,92.8333 384.5,93.1667 384.5,93.5C 383.504,93.4142 382.671,93.7476 382,94.5C 377.467,107.523 368.3,113.023 354.5,111C 344.243,107.566 338.577,100.399 337.5,89.5C 338.034,80.1557 342.367,73.3223 350.5,69C 347.854,68.5026 345.187,68.3359 342.5,68.5C 341.833,68.5 341.167,68.5 340.5,68.5 Z"/></g>
<g><path style="opacity:1" fill="#1ca3e0" d="M 361.5,70.5 C 368.186,72.1782 373.52,75.8448 377.5,81.5C 377.415,85.62 377.249,89.9534 377,94.5C 375.789,97.7591 373.956,100.592 371.5,103C 356.011,110.393 346.344,105.726 342.5,89C 344.515,78.3374 350.848,72.1707 361.5,70.5 Z"/></g>
<g><path style="opacity:1" fill="#0d76b1" d="M 330.5,71.5 C 331.873,71.3433 333.207,71.51 334.5,72C 325.726,86.8289 327.392,100.496 339.5,113C 356.585,124.43 372.085,122.597 386,107.5C 386.497,109.81 386.663,112.143 386.5,114.5C 386.184,119.464 384.517,123.797 381.5,127.5C 381.719,126.325 381.386,125.325 380.5,124.5C 360.929,133.917 343.429,130.917 328,115.5C 320.753,105.184 318.253,93.8503 320.5,81.5C 320.043,80.7025 319.376,80.3691 318.5,80.5C 321.776,76.5293 325.776,73.5293 330.5,71.5 Z"/></g>
<g><path style="opacity:1" fill="#008acc" d="M 342.5,68.5 C 345.187,68.3359 347.854,68.5026 350.5,69C 342.367,73.3223 338.034,80.1557 337.5,89.5C 338.577,100.399 344.243,107.566 354.5,111C 368.3,113.023 377.467,107.523 382,94.5C 382.671,93.7476 383.504,93.4142 384.5,93.5C 384.595,95.7857 385.262,97.7857 386.5,99.5C 386.5,99.8333 386.5,100.167 386.5,100.5C 383.448,104.058 380.114,107.558 376.5,111C 360.027,120.34 346.527,117.173 336,101.5C 331.115,89.0191 333.282,78.0191 342.5,68.5 Z"/></g>
<g><path style="opacity:0.416" fill="#a6c6da" d="M 316.5,82.5 C 316.573,84.0269 315.906,85.0269 314.5,85.5C 314.427,83.9731 315.094,82.9731 316.5,82.5 Z"/></g>
<g><path style="opacity:1" fill="#12649b" d="M 318.5,80.5 C 319.376,80.3691 320.043,80.7025 320.5,81.5C 318.253,93.8503 320.753,105.184 328,115.5C 343.429,130.917 360.929,133.917 380.5,124.5C 381.386,125.325 381.719,126.325 381.5,127.5C 378.574,133.428 374.241,138.094 368.5,141.5C 368.5,140.5 368.5,139.5 368.5,138.5C 354.379,139.843 341.379,136.677 329.5,129C 327.333,125.5 324.5,122.667 321,120.5C 316.569,113.212 312.902,105.545 310,97.5C 309.768,98.7375 309.268,99.7375 308.5,100.5C 308.956,94.7803 310.956,89.7803 314.5,85.5C 315.906,85.0269 316.573,84.0269 316.5,82.5C 316.833,81.5 317.5,80.8333 318.5,80.5 Z"/></g>
<g><path style="opacity:0.898" fill="#8cc3e5" d="M 384.5,92.5 C 385.924,94.5145 386.59,96.8478 386.5,99.5C 385.262,97.7857 384.595,95.7857 384.5,93.5C 384.5,93.1667 384.5,92.8333 384.5,92.5 Z"/></g>
<g><path style="opacity:1" fill="#1fb0e6" d="M 356.5,76.5 C 366.139,75.8042 371.805,80.1375 373.5,89.5C 370.451,101.025 363.451,104.525 352.5,100C 344.905,90.5822 346.238,82.7489 356.5,76.5 Z"/></g>
<g><path style="opacity:1" fill="#57c0ed" d="M 357.5,82.5 C 367.109,82.9357 369.776,87.4357 365.5,96C 360.962,98.3034 356.795,97.8034 353,94.5C 351.309,89.1311 352.809,85.1311 357.5,82.5 Z"/></g>
<g><path style="opacity:0.999" fill="#205a8b" d="M 368.5,141.5 C 359.813,146.771 350.48,148.437 340.5,146.5C 338.485,145.076 336.152,144.41 333.5,144.5C 330.008,143.59 327.008,141.924 324.5,139.5C 324.027,138.094 323.027,137.427 321.5,137.5C 310.222,127.668 305.889,115.335 308.5,100.5C 309.268,99.7375 309.768,98.7375 310,97.5C 312.902,105.545 316.569,113.212 321,120.5C 324.5,122.667 327.333,125.5 329.5,129C 341.379,136.677 354.379,139.843 368.5,138.5C 368.5,139.5 368.5,140.5 368.5,141.5 Z"/></g>
<g><path style="opacity:0.835" fill="#72a6c6" d="M 480.5,121.5 C 480.795,123.735 480.461,125.735 479.5,127.5C 479.784,125.585 479.451,123.919 478.5,122.5C 478.89,119.161 479.39,115.827 480,112.5C 480.498,115.482 480.665,118.482 480.5,121.5 Z"/></g>
<g><path style="opacity:0.8" fill="#8caac3" d="M 321.5,137.5 C 323.027,137.427 324.027,138.094 324.5,139.5C 322.973,139.573 321.973,138.906 321.5,137.5 Z"/></g>
<g><path style="opacity:0.987" fill="#88898c" d="M 422.5,147.5 C 422.565,147.062 422.399,146.728 422,146.5C 417.564,149.303 413.397,152.469 409.5,156C 397.387,163.868 384.387,168.368 370.5,169.5C 381.643,163.19 390.309,154.356 396.5,143C 406.077,142.82 415.577,142.32 425,141.5C 425.008,143.821 424.175,145.821 422.5,147.5 Z"/></g>
<g><path style="opacity:0.706" fill="#7a9dba" d="M 333.5,144.5 C 336.152,144.41 338.485,145.076 340.5,146.5C 337.848,146.59 335.515,145.924 333.5,144.5 Z"/></g>
<g><path style="opacity:0.082" fill="#dee9f0" d="M 465.5,160.5 C 465.573,162.027 464.906,163.027 463.5,163.5C 463.427,161.973 464.094,160.973 465.5,160.5 Z"/></g>
<g><path style="opacity:0.427" fill="#9dc0d6" d="M 259.5,161.5 C 260.906,161.973 261.573,162.973 261.5,164.5C 260.094,164.027 259.427,163.027 259.5,161.5 Z"/></g>
<g><path style="opacity:0.009" fill="#f1f1f2" d="M 456.5,164.5 C 455.637,169.355 452.97,172.688 448.5,174.5C 450.817,170.854 453.484,167.52 456.5,164.5 Z"/></g>
<g><path style="opacity:0.502" fill="#9cc0d7" d="M 461.5,167.5 C 461.573,169.027 460.906,170.027 459.5,170.5C 459.427,168.973 460.094,167.973 461.5,167.5 Z"/></g>
<g><path style="opacity:0.659" fill="#a3c5da" d="M 285.5,173.5 C 287.027,173.427 288.027,174.094 288.5,175.5C 286.973,175.573 285.973,174.906 285.5,173.5 Z"/></g>
<g><path style="opacity:0.718" fill="#aac8dc" d="M 271.5,177.5 C 273.833,179.167 275.833,181.167 277.5,183.5C 274.5,182.5 272.5,180.5 271.5,177.5 Z"/></g>
<g><path style="opacity:0.478" fill="#9fc3d9" d="M 290.5,177.5 C 292.027,177.427 293.027,178.094 293.5,179.5C 291.973,179.573 290.973,178.906 290.5,177.5 Z"/></g>
<g><path style="opacity:0.012" fill="#f1f1f2" d="M 448.5,174.5 C 446.5,178.5 443.5,181.5 439.5,183.5C 442.167,180.167 445.167,177.167 448.5,174.5 Z"/></g>
<g><path style="opacity:0.431" fill="#9fc2d9" d="M 296.5,181.5 C 298.027,181.427 299.027,182.094 299.5,183.5C 297.973,183.573 296.973,182.906 296.5,181.5 Z"/></g>
<g><path style="opacity:0.012" fill="#f1f1f2" d="M 437.5,185.5 C 435.701,188.63 433.034,190.63 429.5,191.5C 431.86,189.147 434.527,187.147 437.5,185.5 Z"/></g>
<g><path style="opacity:0.89" fill="#7da9c9" d="M 454.5,176.5 C 451.5,181.5 447.5,185.5 442.5,188.5C 446.167,184.167 450.167,180.167 454.5,176.5 Z"/></g>
<g><path style="opacity:0.773" fill="#75a6c8" d="M 317.5,191.5 C 320.152,191.41 322.485,192.076 324.5,193.5C 321.848,193.59 319.515,192.924 317.5,191.5 Z"/></g>
<g><path style="opacity:0.702" fill="#9abed6" d="M 438.5,191.5 C 438.027,192.906 437.027,193.573 435.5,193.5C 435.973,192.094 436.973,191.427 438.5,191.5 Z"/></g>
<g><path style="opacity:0.647" fill="#a4c5da" d="M 435.5,193.5 C 435.027,194.906 434.027,195.573 432.5,195.5C 432.973,194.094 433.973,193.427 435.5,193.5 Z"/></g>
<g><path style="opacity:0.635" fill="#a6c6db" d="M 432.5,195.5 C 432.027,196.906 431.027,197.573 429.5,197.5C 429.973,196.094 430.973,195.427 432.5,195.5 Z"/></g>
<g><path style="opacity:0.608" fill="#b0ccdf" d="M 425.5,199.5 C 425.027,200.906 424.027,201.573 422.5,201.5C 422.973,200.094 423.973,199.427 425.5,199.5 Z"/></g>
<g><path style="opacity:0.009" fill="#f5f5f6" d="M 428.5,192.5 C 424.898,194.922 421.398,197.589 418,200.5C 417.667,200.167 417.333,199.833 417,199.5C 412.902,201.279 409.069,203.446 405.5,206C 398.312,208.008 390.645,209.675 382.5,211C 381.328,211.419 380.328,212.085 379.5,213C 371.514,213.999 363.514,214.333 355.5,214C 353.913,213.138 352.246,212.471 350.5,212C 351.527,211.487 352.527,210.987 353.5,210.5C 359.987,211.654 366.654,211.821 373.5,211C 393.114,208.518 411.448,202.351 428.5,192.5 Z"/></g>
<g><path style="opacity:0.718" fill="#abc8dc" d="M 400.5,210.5 C 398.898,212.074 396.898,212.741 394.5,212.5C 396.214,211.262 398.214,210.595 400.5,210.5 Z"/></g>
<g><path style="opacity:0.925" fill="#7ba9c9" d="M 384.5,214.5 C 382.485,215.924 380.152,216.59 377.5,216.5C 377.5,216.167 377.5,215.833 377.5,215.5C 379.764,214.781 382.097,214.448 384.5,214.5 Z"/></g>
<g><path style="opacity:0.455" fill="#a4c5da" d="M 346.5,215.5 C 356.833,216.833 367.167,216.833 377.5,215.5C 377.5,215.833 377.5,216.167 377.5,216.5C 366.957,218.12 356.623,217.787 346.5,215.5 Z"/></g>
<g><path style="opacity:0.765" fill="#97bdd6" d="M 256.5,217.5 C 258.027,217.427 259.027,218.094 259.5,219.5C 257.973,219.573 256.973,218.906 256.5,217.5 Z"/></g>
<g><path style="opacity:0.357" fill="#a8c7dc" d="M 271.5,227.5 C 273.027,227.427 274.027,228.094 274.5,229.5C 272.973,229.573 271.973,228.906 271.5,227.5 Z"/></g>
<g><path style="opacity:0.933" fill="#79a1bf" d="M 300.5,240.5 C 303.152,240.41 305.485,241.076 307.5,242.5C 304.848,242.59 302.515,241.924 300.5,240.5 Z"/></g>
<g><path style="opacity:0.996" fill="#8b8c8f" d="M 162.5,251.5 C 176.385,252.594 180.551,259.594 175,272.5C 170.02,276.593 164.52,277.426 158.5,275C 152.593,270.339 151.093,264.505 154,257.5C 156.322,254.605 159.155,252.605 162.5,251.5 Z"/></g>
<g><path style="opacity:0.996" fill="#838487" d="M -0.5,256.5 C 6.83333,256.5 14.1667,256.5 21.5,256.5C 21.3334,278.169 21.5,299.836 22,321.5C 22.3138,330.17 26.4805,335.837 34.5,338.5C 39.9753,339.489 45.642,339.822 51.5,339.5C 51.5,312.5 51.5,285.5 51.5,258.5C 58.8333,258.5 66.1667,258.5 73.5,258.5C 73.5,290.167 73.5,321.833 73.5,353.5C 56.2483,356.744 38.9149,357.244 21.5,355C 9.56924,352.903 2.23591,346.07 -0.5,334.5C -0.5,308.5 -0.5,282.5 -0.5,256.5 Z"/></g>
<g><path style="opacity:0.015" fill="#f2f2f2" d="M 73.5,258.5 C 66.1667,258.5 58.8333,258.5 51.5,258.5C 51.5,285.5 51.5,312.5 51.5,339.5C 45.642,339.822 39.9753,339.489 34.5,338.5C 39.8333,338.5 45.1667,338.5 50.5,338.5C 50.5,311.5 50.5,284.5 50.5,257.5C 58.3516,257.175 66.0182,257.508 73.5,258.5 Z"/></g>
<g><path style="opacity:1" fill="#1d5c8e" d="M 256.5,281.5 C 254.958,282.301 253.292,282.634 251.5,282.5C 220.35,272.65 205.85,283.984 208,316.5C 208.874,320.288 210.041,323.954 211.5,327.5C 211.427,329.027 212.094,330.027 213.5,330.5C 219.299,335.711 226.133,338.045 234,337.5C 241.92,337.683 249.42,336.016 256.5,332.5C 259.122,338.197 261.456,344.03 263.5,350C 248.667,357.241 233.334,359.075 217.5,355.5C 215.485,354.076 213.152,353.41 210.5,353.5C 208.181,353.008 206.181,352.008 204.5,350.5C 204.027,349.094 203.027,348.427 201.5,348.5C 201.027,347.094 200.027,346.427 198.5,346.5C 190.278,338.712 185.778,329.046 185,317.5C 183.79,307.268 184.79,297.268 188,287.5C 189.357,284.102 191.19,281.102 193.5,278.5C 194.906,278.027 195.573,277.027 195.5,275.5C 202.581,266.455 211.914,261.289 223.5,260C 236.759,258.126 249.259,260.293 261,266.5C 260.427,271.725 258.927,276.725 256.5,281.5 Z"/></g>
<g><path style="opacity:0.541" fill="#93b3cb" d="M 195.5,275.5 C 195.573,277.027 194.906,278.027 193.5,278.5C 193.427,276.973 194.094,275.973 195.5,275.5 Z"/></g>
<g><path style="opacity:1" fill="#8ca9c4" d="M 256.5,281.5 C 255.68,284.793 254.013,285.126 251.5,282.5C 253.292,282.634 254.958,282.301 256.5,281.5 Z"/></g>
<g><path style="opacity:0.997" fill="#828386" d="M 144.5,306.5 C 144.5,322.5 144.5,338.5 144.5,354.5C 138.167,354.5 131.833,354.5 125.5,354.5C 125.829,339.657 125.496,324.99 124.5,310.5C 123.741,307.151 122.074,304.318 119.5,302C 114.628,300.612 109.628,300.112 104.5,300.5C 103.503,318.326 103.17,336.326 103.5,354.5C 97.1667,354.5 90.8333,354.5 84.5,354.5C 84.5,331.833 84.5,309.167 84.5,286.5C 99.1489,282.19 113.982,281.524 129,284.5C 138.857,288.552 144.023,295.886 144.5,306.5 Z"/></g>
<g><path style="opacity:1" fill="#175a8c" d="M 324.5,300.5 C 324.41,303.152 325.076,305.485 326.5,307.5C 326.5,313.5 326.5,319.5 326.5,325.5C 311.5,325.5 296.5,325.5 281.5,325.5C 281.263,326.791 281.596,327.791 282.5,328.5C 283.11,329.391 283.443,330.391 283.5,331.5C 283.427,333.027 284.094,334.027 285.5,334.5C 290.461,337.697 295.961,339.364 302,339.5C 307.905,338.824 313.739,337.824 319.5,336.5C 320.167,337.5 320.833,338.5 321.5,339.5C 322.265,342.096 322.599,344.763 322.5,347.5C 322.675,349.621 322.341,351.621 321.5,353.5C 305.44,359.591 289.774,358.757 274.5,351C 273.619,350.292 272.953,349.458 272.5,348.5C 271.738,346.738 270.404,345.738 268.5,345.5C 261.308,335.209 258.975,323.876 261.5,311.5C 262.924,309.485 263.59,307.152 263.5,304.5C 265.581,297.649 269.581,292.315 275.5,288.5C 277.027,288.573 278.027,287.906 278.5,286.5C 280.858,284.871 283.524,283.705 286.5,283C 300.712,279.849 312.545,283.683 322,294.5C 323.122,296.407 323.955,298.407 324.5,300.5 Z M 291.5,299.5 C 301.021,298.688 306.354,303.021 307.5,312.5C 299.167,312.5 290.833,312.5 282.5,312.5C 282.809,306.208 285.809,301.874 291.5,299.5 Z"/></g>
<g><path style="opacity:0.999" fill="#1f5d8e" d="M 357.5,307.5 C 357.821,309.048 358.821,309.715 360.5,309.5C 365.664,311.11 370.664,313.11 375.5,315.5C 375.821,317.048 376.821,317.715 378.5,317.5C 380.389,318.604 382.055,319.937 383.5,321.5C 383.427,323.027 384.094,324.027 385.5,324.5C 392.096,343.768 385.096,354.601 364.5,357C 353.293,358.354 342.627,356.687 332.5,352C 333.751,346.4 335.251,340.9 337,335.5C 346.172,339.584 355.672,340.751 365.5,339C 368.167,336.667 368.167,334.333 365.5,332C 357.214,329.191 349.548,325.357 342.5,320.5C 342.027,319.094 341.027,318.427 339.5,318.5C 333.388,309.906 333.054,301.239 338.5,292.5C 339.906,292.027 340.573,291.027 340.5,289.5C 342.027,289.573 343.027,288.906 343.5,287.5C 345.965,285.163 348.965,283.663 352.5,283C 359.833,282.333 367.167,282.333 374.5,283C 378.461,283.404 382.128,284.57 385.5,286.5C 384.189,291.892 382.689,297.226 381,302.5C 372.724,299.121 364.39,298.788 356,301.5C 355.059,303.989 355.559,305.989 357.5,307.5 Z"/></g>
<g><path style="opacity:1" fill="#0c578a" d="M 561.5,297.5 C 561.41,300.152 562.076,302.485 563.5,304.5C 563.5,304.833 563.5,305.167 563.5,305.5C 563.5,321.833 563.5,338.167 563.5,354.5C 557.167,354.5 550.833,354.5 544.5,354.5C 544.829,339.99 544.496,325.657 543.5,311.5C 542.699,309.958 542.366,308.292 542.5,306.5C 542.715,304.821 542.048,303.821 540.5,303.5C 535.072,299.439 529.738,299.606 524.5,304C 525.479,320.798 525.812,337.632 525.5,354.5C 518.833,354.5 512.167,354.5 505.5,354.5C 505.829,339.324 505.496,324.324 504.5,309.5C 503.878,305.776 501.878,302.943 498.5,301C 494.577,300.207 490.744,300.374 487,301.5C 486.5,319.164 486.333,336.83 486.5,354.5C 479.833,354.5 473.167,354.5 466.5,354.5C 466.5,331.833 466.5,309.167 466.5,286.5C 478.893,282.884 491.56,281.717 504.5,283C 508.446,284.306 512.112,286.139 515.5,288.5C 528.281,281.191 541.281,280.691 554.5,287C 558.236,289.659 560.569,293.159 561.5,297.5 Z"/></g>
<g><path style="opacity:1" fill="#1b5b8d" d="M 623.5,288.5 C 623.738,290.404 624.738,291.738 626.5,292.5C 627.906,292.973 628.573,293.973 628.5,295.5C 628.41,298.152 629.076,300.485 630.5,302.5C 631.485,319.423 631.818,336.423 631.5,353.5C 615.169,357.137 598.836,357.303 582.5,354C 580.416,353.303 578.749,352.136 577.5,350.5C 577.027,349.094 576.027,348.427 574.5,348.5C 568.368,339.584 568.035,330.584 573.5,321.5C 574.906,321.027 575.573,320.027 575.5,318.5C 580.107,313.868 585.774,311.368 592.5,311C 598.87,310.294 605.203,310.461 611.5,311.5C 610.825,302.719 605.991,298.719 597,299.5C 591.803,300.005 586.637,300.672 581.5,301.5C 580.222,301.218 579.222,300.551 578.5,299.5C 577.158,294.65 576.825,289.817 577.5,285C 591.194,281.748 604.861,281.748 618.5,285C 620.196,286.176 621.862,287.343 623.5,288.5 Z M 602.5,324.5 C 605.43,325.299 608.43,325.632 611.5,325.5C 611.5,330.5 611.5,335.5 611.5,340.5C 606.821,340.666 602.155,340.499 597.5,340C 590.964,338.428 589.131,334.595 592,328.5C 592.903,327.299 594.069,326.465 595.5,326C 598.036,325.814 600.369,325.314 602.5,324.5 Z"/></g>
<g><path style="opacity:1" fill="#0d578a" d="M 687.5,284.5 C 687.5,287.5 687.5,290.5 687.5,293.5C 686.833,295.167 686.167,296.833 685.5,298.5C 684.596,299.209 684.263,300.209 684.5,301.5C 683.5,301.5 682.5,301.5 681.5,301.5C 675.862,300.78 670.196,300.447 664.5,300.5C 663.5,300.5 662.5,300.5 661.5,300.5C 661.5,318.5 661.5,336.5 661.5,354.5C 655.167,354.5 648.833,354.5 642.5,354.5C 642.178,332.092 642.511,309.758 643.5,287.5C 657.744,282.152 672.411,281.152 687.5,284.5 Z"/></g>
<g><path style="opacity:0.353" fill="#cacacc" d="M 154.5,283.5 C 161.5,283.5 168.5,283.5 175.5,283.5C 175.5,307.5 175.5,331.5 175.5,355.5C 168.5,355.5 161.5,355.5 154.5,355.5C 154.5,331.5 154.5,307.5 154.5,283.5 Z"/></g>
<g><path style="opacity:0.996" fill="#808284" d="M 155.5,284.5 C 161.833,284.5 168.167,284.5 174.5,284.5C 174.5,307.833 174.5,331.167 174.5,354.5C 168.167,354.5 161.833,354.5 155.5,354.5C 155.5,331.167 155.5,307.833 155.5,284.5 Z"/></g>
<g><path style="opacity:1" fill="#0f578a" d="M 394.5,284.5 C 401.167,284.5 407.833,284.5 414.5,284.5C 414.171,299.01 414.504,313.343 415.5,327.5C 415.78,334.946 419.613,338.946 427,339.5C 429.719,338.556 432.552,338.223 435.5,338.5C 435.5,320.5 435.5,302.5 435.5,284.5C 442.167,284.5 448.833,284.5 455.5,284.5C 455.5,307.167 455.5,329.833 455.5,352.5C 453.123,353.887 450.457,354.721 447.5,355C 436.526,357.266 425.526,357.6 414.5,356C 410.965,355.337 407.965,353.837 405.5,351.5C 405.027,350.094 404.027,349.427 402.5,349.5C 398.156,345.141 395.656,339.807 395,333.5C 394.5,317.17 394.333,300.837 394.5,284.5 Z"/></g>
<g><path style="opacity:0.191" fill="#cedee8" d="M 394.5,284.5 C 401.313,283.509 408.313,283.175 415.5,283.5C 415.5,298.167 415.5,312.833 415.5,327.5C 414.504,313.343 414.171,299.01 414.5,284.5C 407.833,284.5 401.167,284.5 394.5,284.5 Z"/></g>
<g><path style="opacity:0.164" fill="#d4e2eb" d="M 435.5,284.5 C 442.313,283.509 449.313,283.175 456.5,283.5C 456.831,306.673 456.498,329.673 455.5,352.5C 455.5,329.833 455.5,307.167 455.5,284.5C 448.833,284.5 442.167,284.5 435.5,284.5 Z"/></g>
<g><path style="opacity:0.321" fill="#c8c8c9" d="M 84.5,286.5 C 84.5,309.167 84.5,331.833 84.5,354.5C 90.8333,354.5 97.1667,354.5 103.5,354.5C 103.17,336.326 103.503,318.326 104.5,300.5C 104.5,318.833 104.5,337.167 104.5,355.5C 97.5,355.5 90.5,355.5 83.5,355.5C 83.1692,332.327 83.5025,309.327 84.5,286.5 Z"/></g>
<g><path style="opacity:0.816" fill="#84a7c2" d="M 278.5,286.5 C 278.027,287.906 277.027,288.573 275.5,288.5C 275.973,287.094 276.973,286.427 278.5,286.5 Z"/></g>
<g><path style="opacity:0.702" fill="#91b2ca" d="M 343.5,287.5 C 343.027,288.906 342.027,289.573 340.5,289.5C 340.973,288.094 341.973,287.427 343.5,287.5 Z"/></g>
<g><path style="opacity:0.481" fill="#86aec6" d="M 643.5,287.5 C 642.511,309.758 642.178,332.092 642.5,354.5C 648.833,354.5 655.167,354.5 661.5,354.5C 661.5,336.5 661.5,318.5 661.5,300.5C 662.5,300.5 663.5,300.5 664.5,300.5C 662.534,318.598 661.867,336.931 662.5,355.5C 655.5,355.5 648.5,355.5 641.5,355.5C 640.844,332.475 641.51,309.809 643.5,287.5 Z"/></g>
<g><path style="opacity:0.749" fill="#9cb9cf" d="M 623.5,288.5 C 625.262,289.262 626.262,290.596 626.5,292.5C 624.738,291.738 623.738,290.404 623.5,288.5 Z"/></g>
<g><path style="opacity:0.737" fill="#92b2ca" d="M 340.5,289.5 C 340.573,291.027 339.906,292.027 338.5,292.5C 338.427,290.973 339.094,289.973 340.5,289.5 Z"/></g>
<g><path style="opacity:0.263" fill="#c4d7e3" d="M 578.5,299.5 C 579.222,300.551 580.222,301.218 581.5,301.5C 580.791,302.404 579.791,302.737 578.5,302.5C 578.5,301.5 578.5,300.5 578.5,299.5 Z"/></g>
<g><path style="opacity:0.682" fill="#83a7c2" d="M 628.5,295.5 C 629.924,297.515 630.59,299.848 630.5,302.5C 629.076,300.485 628.41,298.152 628.5,295.5 Z"/></g>
<g><path style="opacity:0.098" fill="#aec8d8" d="M 685.5,298.5 C 685.5,299.833 685.5,301.167 685.5,302.5C 683.901,302.768 682.568,302.434 681.5,301.5C 682.5,301.5 683.5,301.5 684.5,301.5C 684.263,300.209 684.596,299.209 685.5,298.5 Z"/></g>
<g><path style="opacity:0.992" fill="#7198b8" d="M 324.5,300.5 C 325.924,302.515 326.59,304.848 326.5,307.5C 325.076,305.485 324.41,303.152 324.5,300.5 Z"/></g>
<g><path style="opacity:0.898" fill="#92afc8" d="M 540.5,303.5 C 542.048,303.821 542.715,304.821 542.5,306.5C 541.599,305.71 540.932,304.71 540.5,303.5 Z"/></g>
<g><path style="opacity:0.69" fill="#749cbb" d="M 561.5,297.5 C 562.924,299.515 563.59,301.848 563.5,304.5C 562.076,302.485 561.41,300.152 561.5,297.5 Z"/></g>
<g><path style="opacity:0.949" fill="#8daac4" d="M 357.5,307.5 C 358.71,307.932 359.71,308.599 360.5,309.5C 358.821,309.715 357.821,309.048 357.5,307.5 Z"/></g>
<g><path style="opacity:0.682" fill="#82a6c2" d="M 263.5,304.5 C 263.59,307.152 262.924,309.485 261.5,311.5C 261.41,308.848 262.076,306.515 263.5,304.5 Z"/></g>
<g><path style="opacity:0.551" fill="#7ca7c1" d="M 563.5,305.5 C 564.497,321.992 564.83,338.658 564.5,355.5C 557.5,355.5 550.5,355.5 543.5,355.5C 543.5,340.833 543.5,326.167 543.5,311.5C 544.496,325.657 544.829,339.99 544.5,354.5C 550.833,354.5 557.167,354.5 563.5,354.5C 563.5,338.167 563.5,321.833 563.5,305.5 Z"/></g>
<g><path style="opacity:0.344" fill="#c6c6c7" d="M 144.5,306.5 C 145.496,322.658 145.83,338.991 145.5,355.5C 138.5,355.5 131.5,355.5 124.5,355.5C 124.5,340.5 124.5,325.5 124.5,310.5C 125.496,324.99 125.829,339.657 125.5,354.5C 131.833,354.5 138.167,354.5 144.5,354.5C 144.5,338.5 144.5,322.5 144.5,306.5 Z"/></g>
<g><path style="opacity:0.929" fill="#90acc6" d="M 375.5,315.5 C 376.71,315.932 377.71,316.599 378.5,317.5C 376.821,317.715 375.821,317.048 375.5,315.5 Z"/></g>
<g><path style="opacity:0.296" fill="#a8c5d6" d="M 504.5,309.5 C 505.496,324.324 505.829,339.324 505.5,354.5C 512.167,354.5 518.833,354.5 525.5,354.5C 518.687,355.491 511.687,355.825 504.5,355.5C 504.5,340.167 504.5,324.833 504.5,309.5 Z"/></g>
<g><path style="opacity:0.624" fill="#a6c1d4" d="M 339.5,318.5 C 341.027,318.427 342.027,319.094 342.5,320.5C 340.973,320.573 339.973,319.906 339.5,318.5 Z"/></g>
<g><path style="opacity:0.824" fill="#89abc5" d="M 575.5,318.5 C 575.573,320.027 574.906,321.027 573.5,321.5C 573.427,319.973 574.094,318.973 575.5,318.5 Z"/></g>
<g><path style="opacity:0.404" fill="#a8c2d5" d="M 383.5,321.5 C 384.906,321.973 385.573,322.973 385.5,324.5C 384.094,324.027 383.427,323.027 383.5,321.5 Z"/></g>
<g><path style="opacity:0.801" fill="#427ea5" d="M 326.5,307.5 C 327.49,313.645 327.823,319.978 327.5,326.5C 312.129,325.85 297.129,326.516 282.5,328.5C 281.596,327.791 281.263,326.791 281.5,325.5C 296.5,325.5 311.5,325.5 326.5,325.5C 326.5,319.5 326.5,313.5 326.5,307.5 Z"/></g>
<g><path style="opacity:0.773" fill="#8eafc8" d="M 211.5,327.5 C 212.906,327.973 213.573,328.973 213.5,330.5C 212.094,330.027 211.427,329.027 211.5,327.5 Z"/></g>
<g><path style="opacity:0.729" fill="#93b3cb" d="M 283.5,331.5 C 284.906,331.973 285.573,332.973 285.5,334.5C 284.094,334.027 283.427,333.027 283.5,331.5 Z"/></g>
<g><path style="opacity:0.482" fill="#b3cbdb" d="M 319.5,336.5 C 319.56,335.957 319.893,335.624 320.5,335.5C 321.429,336.689 321.762,338.022 321.5,339.5C 320.833,338.5 320.167,337.5 319.5,336.5 Z"/></g>
<g><path style="opacity:0.663" fill="#a1bdd1" d="M 268.5,345.5 C 270.404,345.738 271.738,346.738 272.5,348.5C 270.596,348.262 269.262,347.262 268.5,345.5 Z"/></g>
<g><path style="opacity:0.737" fill="#98b6cd" d="M 198.5,346.5 C 200.027,346.427 201.027,347.094 201.5,348.5C 199.973,348.573 198.973,347.906 198.5,346.5 Z"/></g>
<g><path style="opacity:0.663" fill="#9ebbd0" d="M 574.5,348.5 C 576.027,348.427 577.027,349.094 577.5,350.5C 575.973,350.573 574.973,349.906 574.5,348.5 Z"/></g>
<g><path style="opacity:0.569" fill="#88abc5" d="M 201.5,348.5 C 203.027,348.427 204.027,349.094 204.5,350.5C 202.973,350.573 201.973,349.906 201.5,348.5 Z"/></g>
<g><path style="opacity:0.745" fill="#96b5cc" d="M 402.5,349.5 C 404.027,349.427 405.027,350.094 405.5,351.5C 403.973,351.573 402.973,350.906 402.5,349.5 Z"/></g>
<g><path style="opacity:0.557" fill="#9ebcd1" d="M 322.5,347.5 C 323.147,348.274 323.48,349.274 323.5,350.5C 323.36,352.03 322.693,353.03 321.5,353.5C 322.341,351.621 322.675,349.621 322.5,347.5 Z"/></g>
<g><path style="opacity:0.953" fill="#789dbb" d="M 210.5,353.5 C 213.152,353.41 215.485,354.076 217.5,355.5C 214.848,355.59 212.515,354.924 210.5,353.5 Z"/></g>
<g><path style="opacity:0.401" fill="#b5cddc" d="M 466.5,286.5 C 466.5,309.167 466.5,331.833 466.5,354.5C 473.167,354.5 479.833,354.5 486.5,354.5C 479.687,355.491 472.687,355.825 465.5,355.5C 465.169,332.327 465.502,309.327 466.5,286.5 Z"/></g>
</svg>
