<svg width="72" height="72" viewBox="0 0 72 72" fill="none" xmlns="http://www.w3.org/2000/svg">
<path d="M35.861 18.0599C25.822 18.0599 17.7245 26.1574 17.7245 36.1964C17.7245 46.2353 25.822 54.3328 35.861 54.3328C45.9 54.3328 53.9974 46.2353 53.9974 36.1964C53.9974 26.1574 45.9 18.0599 35.861 18.0599ZM35.861 47.9874C29.3735 47.9874 24.0699 42.6996 24.0699 36.1964C24.0699 29.6931 29.3577 24.4053 35.861 24.4053C42.3642 24.4053 47.652 29.6931 47.652 36.1964C47.652 42.6996 42.3484 47.9874 35.861 47.9874ZM58.9696 17.318C58.9696 19.6699 57.0754 21.5483 54.7393 21.5483C52.3874 21.5483 50.5091 19.6541 50.5091 17.318C50.5091 14.9819 52.4032 13.0878 54.7393 13.0878C57.0754 13.0878 58.9696 14.9819 58.9696 17.318ZM70.9816 21.6114C70.7133 15.9448 69.419 10.9253 65.2676 6.78973C61.1321 2.65418 56.1126 1.35985 50.4459 1.07572C44.6056 0.744249 27.1006 0.744249 21.2603 1.07572C15.6094 1.34406 10.5899 2.6384 6.43857 6.77395C2.28723 10.9095 1.00868 15.929 0.724559 21.5956C0.393083 27.4359 0.393083 44.941 0.724559 50.7813C0.992896 56.4479 2.28723 61.4674 6.43857 65.603C10.5899 69.7385 15.5936 71.0329 21.2603 71.317C27.1006 71.6485 44.6056 71.6485 50.4459 71.317C56.1126 71.0487 61.1321 69.7543 65.2676 65.603C69.4032 61.4674 70.6975 56.4479 70.9816 50.7813C71.3131 44.941 71.3131 27.4517 70.9816 21.6114ZM63.4366 57.0478C62.2054 60.1415 59.8219 62.525 56.7124 63.772C52.0559 65.6188 41.0067 65.1926 35.861 65.1926C30.7152 65.1926 19.6502 65.603 15.0096 63.772C11.9158 62.5408 9.53234 60.1573 8.28536 57.0478C6.43857 52.3913 6.86475 41.3421 6.86475 36.1964C6.86475 31.0506 6.45435 19.9856 8.28536 15.345C9.51656 12.2512 11.9 9.86772 15.0096 8.62074C19.666 6.77395 30.7152 7.20013 35.861 7.20013C41.0067 7.20013 52.0717 6.78973 56.7124 8.62074C59.8062 9.85194 62.1896 12.2354 63.4366 15.345C65.2834 20.0014 64.8572 31.0506 64.8572 36.1964C64.8572 41.3421 65.2834 52.4071 63.4366 57.0478Z" fill="black"/>
</svg>
