<?xml version="1.0" standalone="no"?>
<!DOCTYPE svg PUBLIC "-//W3C//DTD SVG 20010904//EN"
 "http://www.w3.org/TR/2001/REC-SVG-20010904/DTD/svg10.dtd">
<svg version="1.0" xmlns="http://www.w3.org/2000/svg"
 width="294.000000pt" height="485.000000pt" viewBox="0 0 294.000000 485.000000"
 preserveAspectRatio="xMidYMid meet">

<g transform="translate(0.000000,485.000000) scale(0.100000,-0.100000)"
fill="#000000" stroke="none">
<path d="M0 3290 c0 -858 2 -1560 5 -1560 3 0 58 22 123 49 113 47 198 76 347
120 117 34 115 31 115 177 0 98 -4 136 -20 181 -11 31 -17 59 -15 64 3 4 -2
12 -11 17 -18 10 -11 32 9 32 8 0 8 -3 -1 -9 -10 -6 -7 -10 12 -15 28 -7 36
-26 11 -26 -19 0 -19 1 6 -62 20 -50 21 -64 14 -233 -3 -99 -10 -205 -14 -235
l-7 -55 -8 73 c-7 63 -10 72 -26 67 -10 -3 -33 -8 -51 -10 -19 -2 -63 -13 -98
-25 -35 -11 -69 -20 -75 -20 -6 0 -27 -18 -47 -39 -20 -22 -48 -42 -65 -45
-85 -17 -161 -38 -181 -52 l-23 -14 0 -835 0 -835 1470 0 1470 0 0 2425 0
2425 -1470 0 -1470 0 0 -1560z m1670 920 c0 -5 -5 -10 -11 -10 -5 0 -7 5 -4
10 3 6 8 10 11 10 2 0 4 -4 4 -10z m17 -22 c-3 -8 -6 -5 -6 6 -1 11 2 17 5 13
3 -3 4 -12 1 -19z m105 -68 c-1 -6 1 -9 6 -6 5 3 24 -10 42 -29 18 -19 36 -32
40 -30 16 10 170 -177 170 -208 0 -6 -3 -8 -6 -4 -12 12 -33 -20 -27 -42 3
-12 1 -21 -6 -21 -6 0 -11 5 -11 10 0 6 -8 10 -17 11 -11 0 -13 3 -6 6 28 11
-88 183 -195 287 -36 35 -58 64 -55 73 4 11 12 8 37 -11 17 -13 30 -30 28 -36z
m-283 -147 c2 -2 -3 -3 -12 -3 -9 0 -22 10 -28 23 l-12 22 24 -20 c13 -11 26
-21 28 -22z m-199 -27 c0 -9 -30 -14 -35 -6 -4 6 3 10 14 10 12 0 21 -2 21 -4z
m48 -33 c0 -5 2 -16 7 -26 5 -13 10 -15 15 -7 5 8 9 7 13 -4 4 -9 3 -15 -1
-15 -19 3 -22 -3 -12 -21 9 -17 8 -20 -11 -20 -19 0 -20 2 -8 17 10 11 10 14
2 9 -7 -4 -13 -2 -13 3 0 6 5 11 12 11 6 0 4 7 -5 18 -19 21 -22 42 -7 42 6 0
9 -3 8 -7z m208 -80 c-10 -11 -37 -12 -30 -2 3 5 12 9 21 9 9 0 13 -3 9 -7z
m-202 -42 c4 -5 -3 -7 -14 -4 -14 4 -20 0 -20 -11 0 -18 -8 -20 -30 -6 -11 7
-11 10 -2 10 7 0 10 5 7 10 -4 6 6 10 24 10 16 0 32 -4 35 -9z m30 -30 c3 -5
0 -11 -8 -14 -15 -6 -26 1 -26 15 0 11 27 10 34 -1z m619 -87 c-3 -9 0 -12 8
-9 9 3 20 -8 31 -32 18 -43 18 -46 -6 -37 -9 3 -13 11 -9 17 4 6 0 8 -11 4 -9
-4 -15 -3 -11 2 3 5 -10 25 -28 45 -33 35 -39 58 -9 33 13 -10 15 -9 8 7 -7
19 -6 19 13 2 11 -10 17 -24 14 -32z m62 6 c16 -31 50 -41 58 -17 6 20 34 -42
82 -188 55 -167 64 -215 41 -215 -9 0 -16 -7 -16 -16 0 -8 -4 -12 -10 -9 -6 4
-11 -14 -11 -47 l-2 -53 -7 55 c-7 54 -42 157 -75 220 -13 25 -21 31 -38 26
-14 -3 -28 3 -43 19 -24 26 -50 34 -38 13 5 -10 4 -10 -6 -1 -12 11 -15 21
-19 66 -1 5 -5 6 -11 2 -5 -3 -14 12 -20 34 -6 22 -16 41 -23 44 -7 2 -8 8 -3
13 5 5 11 4 13 -4 3 -7 12 -18 20 -25 7 -7 24 -22 37 -34 17 -16 26 -19 35
-10 8 8 11 6 11 -6 0 -10 7 -29 16 -42 9 -14 12 -25 8 -25 -14 -1 28 -30 42
-30 7 0 14 8 16 18 5 22 -22 95 -39 105 -8 5 -11 12 -8 17 3 6 -3 31 -14 56
-12 26 -21 50 -21 55 0 17 10 9 25 -21z m-590 -2 c-12 -7 -21 -6 -28 2 -9 10
-9 11 0 6 6 -3 14 -2 18 4 4 6 11 7 17 4 7 -4 4 -10 -7 -16z m-1095 -25 c-1
-13 -30 -48 -30 -36 0 7 5 15 10 18 6 4 8 11 5 16 -4 5 -1 9 4 9 6 0 11 -3 11
-7z m1080 -18 c0 -10 -41 -25 -52 -19 -8 5 -5 10 8 15 22 9 44 11 44 4z m400
-40 c7 -9 10 -18 6 -22 -3 -3 -6 -1 -6 6 0 7 -4 10 -9 7 -5 -3 -11 1 -15 9 -7
19 8 19 24 0z m-1518 -43 c-2 -7 -22 -32 -44 -55 -21 -23 -34 -43 -28 -45 6
-2 15 -13 21 -24 6 -11 7 -18 1 -15 -5 4 -14 -5 -21 -20 -10 -22 -9 -25 4 -20
15 6 20 -7 17 -46 -1 -10 3 -15 8 -12 6 4 7 -2 1 -17 -12 -33 -2 -81 15 -74 9
3 14 -2 14 -14 0 -22 16 -35 25 -20 4 6 11 8 16 5 5 -3 0 -16 -11 -27 -12 -13
-19 -34 -18 -52 1 -17 -2 -40 -6 -51 -6 -16 -6 -17 3 -5 9 12 11 11 12 -10 1
-17 3 -19 6 -7 2 9 9 17 14 17 17 0 21 -29 10 -62 l-11 -33 21 25 c12 14 26
24 30 22 5 -1 9 5 9 14 0 17 19 38 38 42 6 1 12 -2 12 -8 0 -5 -5 -10 -11 -10
-5 0 -8 -4 -5 -9 4 -5 1 -22 -5 -37 -5 -16 -7 -25 -3 -21 12 11 33 -26 34 -59
0 -54 -54 -78 -66 -29 -6 25 -29 34 -36 15 -2 -6 -11 -4 -23 5 -11 9 -15 14
-10 11 6 -2 11 4 11 14 0 11 -1 18 -3 17 -15 -16 -53 -81 -48 -85 3 -3 5 1 5
8 0 7 3 10 7 7 3 -4 13 -2 22 4 9 6 3 0 -12 -15 -16 -14 -33 -23 -39 -20 -6 4
-8 3 -5 -3 4 -5 -3 -19 -13 -31 -25 -27 -25 -31 5 -72 14 -19 25 -37 25 -42 0
-11 -60 53 -61 66 -6 50 -6 62 1 71 4 6 10 32 14 59 5 43 3 51 -18 71 l-24 22
-7 -34 c-8 -42 3 -115 16 -107 5 3 9 1 9 -5 0 -5 -5 -11 -12 -13 -8 -3 -8 -21
2 -72 9 -48 15 -64 22 -54 7 9 8 5 4 -14 -7 -33 36 -142 89 -223 62 -93 61
-92 42 -76 -34 28 -109 152 -133 223 -14 40 -32 105 -39 143 -15 77 -29 303
-16 245 l8 -35 2 40 c1 42 -18 90 -20 50 -1 -27 -38 182 -39 219 0 39 31 137
42 130 4 -3 8 0 8 6 0 7 6 8 19 0 25 -13 42 -13 19 1 -20 11 -24 59 -5 59 8 0
7 4 -3 11 -11 8 -12 12 -2 16 6 2 12 11 12 19 0 8 5 14 11 14 5 0 7 -4 4 -10
-3 -5 -1 -10 4 -10 6 0 11 4 11 8 0 14 36 52 43 45 4 -3 10 2 14 12 6 18 7 18
13 -1 4 -10 5 -25 2 -32z m925 32 c-3 -3 -12 -4 -19 -1 -8 3 -5 6 6 6 11 1 17
-2 13 -5z m165 -79 c1 -35 8 -64 16 -70 15 -12 27 -85 13 -85 -9 0 18 -83 32
-96 4 -4 7 -22 7 -39 0 -19 8 -39 20 -50 18 -17 27 -80 9 -69 -4 2 -9 -5 -12
-15 -3 -13 3 -22 22 -31 25 -11 25 -12 6 -26 -22 -16 -123 -19 -173 -5 -37 11
-199 14 -254 5 -36 -6 -37 -5 -43 30 -4 20 -5 45 -2 55 3 14 -7 30 -34 55 -39
35 -48 63 -28 83 6 6 13 33 16 59 2 27 9 53 14 59 5 5 9 17 9 26 0 19 35 45
74 55 14 3 26 10 26 15 0 5 6 9 14 9 8 0 28 12 43 26 15 14 22 23 16 19 -7 -3
-13 -1 -13 4 0 15 13 14 29 -1 11 -10 13 -10 7 0 -11 19 9 14 28 -7 19 -21 39
-18 67 10 17 17 17 19 1 28 -13 8 -8 10 26 11 33 0 42 4 42 18 1 43 19 -17 22
-73z m448 -1 c0 -8 -4 -12 -10 -9 -10 6 -11 5 -15 -32 -1 -12 -5 -28 -8 -36
-3 -8 -3 -18 1 -21 10 -10 11 -37 1 -30 -5 3 -9 0 -9 -6 0 -6 -4 -8 -10 -5 -5
3 -10 11 -10 16 0 6 5 7 10 4 14 -8 13 8 -1 22 -18 18 -21 73 -4 79 11 5 13
16 9 48 l-7 41 27 -28 c14 -15 26 -35 26 -43z m-86 -109 c10 -14 18 -55 21
-102 5 -75 4 -77 -12 -54 -20 28 -25 51 -12 51 5 0 3 14 -6 30 -9 18 -11 30
-5 30 10 0 7 40 -5 60 -13 22 4 9 19 -15z m263 -7 c-16 -62 -28 -174 -23 -203
5 -27 11 -32 33 -32 38 0 63 -38 63 -98 0 -89 -11 -155 -27 -155 -33 0 -67
-40 -70 -82 -6 -61 15 -206 38 -257 10 -24 17 -46 14 -49 -11 -11 -45 90 -60
179 -22 131 -30 381 -16 509 13 127 31 210 44 210 5 0 7 -10 4 -22z m-1733 -4
c3 -8 2 -12 -4 -9 -6 3 -10 10 -10 16 0 14 7 11 14 -7z m1516 -94 c0 -5 -2
-10 -4 -10 -3 0 -8 5 -11 10 -3 6 -1 10 4 10 6 0 11 -4 11 -10z m-71 -65 c17
-25 27 -32 36 -25 8 7 12 5 12 -5 0 -8 -9 -15 -19 -15 -10 0 -20 0 -23 0 -3 0
-5 3 -6 8 -1 4 -10 19 -20 34 -20 28 -23 38 -11 38 4 0 18 -16 31 -35z m26 -5
l8 -25 -21 25 c-11 14 -18 29 -15 33 7 12 19 -3 28 -33z m462 8 c-3 -8 -6 -5
-6 6 -1 11 2 17 5 13 3 -3 4 -12 1 -19z m52 -64 c42 -94 30 -391 -16 -382 -21
4 -50 85 -58 166 -7 76 8 182 32 218 20 31 27 30 42 -2z m-579 -24 c6 -12 8
-30 5 -41 -4 -13 0 -28 12 -41 12 -15 13 -19 3 -13 -8 4 -5 -3 7 -16 21 -23
21 -25 4 -26 -13 -1 -23 8 -30 28 -5 16 -8 29 -6 29 2 0 -2 19 -10 41 -8 23
-15 45 -15 50 0 17 19 9 30 -11z m35 0 c3 -5 2 -10 -4 -10 -5 0 -13 5 -16 10
-3 6 -2 10 4 10 5 0 13 -4 16 -10z m-1269 -69 c1 -6 0 -7 -3 -1 -2 5 -11 10
-18 10 -8 0 -17 4 -20 10 -4 6 2 7 16 1 13 -4 24 -13 25 -20z m1076 -111 c5 0
24 11 42 25 18 14 38 25 44 25 6 0 26 -46 43 -102 102 -334 136 -413 179 -413
15 0 24 -5 23 -12 -2 -7 -6 -78 -10 -158 l-6 -146 50 -52 c55 -56 73 -85 73
-115 0 -50 -88 -244 -163 -357 -51 -77 -58 -85 -80 -85 -12 0 -42 -14 -66 -30
-41 -28 -45 -29 -62 -14 -10 9 -21 25 -24 35 -8 24 -22 24 -43 0 -19 -21 -70
-40 -89 -34 -7 3 -13 11 -13 20 0 8 -9 28 -21 44 -11 16 -17 29 -13 29 3 0 1
7 -6 15 -7 8 -10 21 -7 29 3 8 3 17 0 20 -12 12 -9 61 5 71 11 9 9 11 -7 11
-12 0 -21 -7 -21 -15 0 -8 -3 -11 -7 -8 -3 4 -11 3 -17 -2 -23 -18 -85 -20
-102 -3 -15 14 -18 14 -28 0 -9 -13 -13 -13 -24 -2 -7 8 -8 15 -2 19 15 9 12
25 -5 25 -8 0 -15 9 -15 20 0 25 -21 70 -33 70 -5 0 -4 6 2 14 15 18 57 26 70
13 6 -6 11 -7 11 -2 -1 18 -25 50 -40 54 -8 2 -30 7 -49 11 -39 10 -63 30 -43
37 6 3 10 9 7 14 -10 16 7 79 21 79 21 0 12 44 -11 52 -11 3 -35 6 -52 7 -35
1 -44 18 -15 27 58 19 72 28 72 46 0 10 -4 16 -10 13 -5 -3 -10 0 -10 8 0 18
-27 29 -51 22 -11 -4 -19 -2 -19 3 0 10 -13 12 -100 15 -60 2 -69 5 -113 42
-44 36 -48 43 -44 75 4 36 44 203 55 230 17 45 22 -131 6 -235 -5 -38 -3 -47
19 -69 28 -28 52 -33 59 -13 3 6 1 44 -3 82 -13 116 -10 211 8 257 9 24 18 45
20 47 6 8 44 -33 69 -78 15 -25 29 -48 30 -50 2 -2 15 1 28 8 17 10 29 10 43
2 48 -25 111 -31 190 -17 100 17 176 50 209 89 24 29 26 36 21 106 -3 42 -8
97 -11 123 -4 28 -2 49 4 53 6 4 8 23 5 43 -5 35 -4 35 6 10 6 -16 15 -28 21
-28z m-107 -14 c31 -31 46 -83 52 -182 l5 -80 -31 -27 c-30 -25 -107 -54 -118
-44 -2 3 -6 15 -7 28 -3 24 -28 89 -46 121 -20 36 41 115 77 101 11 -4 14 -2
9 5 -4 7 -15 12 -24 12 -9 0 -29 8 -45 18 l-27 19 42 13 c24 7 37 15 29 18
-11 4 -11 6 0 13 25 16 59 9 84 -15z m-800 -26 c3 -5 -1 -10 -9 -10 -9 0 -16
5 -16 10 0 6 4 10 9 10 6 0 13 -4 16 -10z m1125 -25 c0 -5 -5 -3 -10 5 -5 8
-10 20 -10 25 0 6 5 3 10 -5 5 -8 10 -19 10 -25z m-777 8 c-37 -18 -44 -34
-13 -26 22 6 60 -21 60 -41 0 -15 40 -94 40 -81 1 6 11 -2 23 -16 12 -15 54
-51 94 -82 40 -30 69 -57 66 -61 -4 -3 -32 -6 -63 -6 -43 0 -64 5 -84 21 -14
11 -26 17 -26 13 0 -13 -24 15 -26 31 -2 15 -102 155 -110 155 -11 0 -1 -23
32 -71 23 -35 28 -47 14 -34 -12 11 -35 42 -50 69 -24 41 -27 53 -18 78 10 28
60 69 83 67 6 0 -5 -8 -22 -16z m-331 -48 c35 -4 67 -14 84 -27 25 -20 26 -25
22 -83 -3 -34 -11 -72 -19 -86 -7 -13 -13 -28 -14 -34 -1 -24 -17 -54 -30 -59
-18 -6 -60 8 -70 24 -4 6 -2 17 4 24 13 16 -5 26 -45 26 -20 0 -24 -5 -24 -30
0 -16 5 -30 10 -30 6 0 10 -5 10 -11 0 -5 -4 -8 -9 -5 -18 12 3 -46 22 -59 20
-14 17 -15 -38 -15 -83 0 -79 -4 -98 110 -8 42 -19 71 -31 81 -16 13 -16 16
-3 16 9 0 13 -5 10 -10 -3 -6 -1 -7 5 -3 7 4 12 26 12 50 0 32 -7 51 -25 72
-23 25 -27 27 -38 14 -12 -16 -31 -20 -42 -9 -15 16 171 59 225 53 14 -2 51
-6 82 -9z m638 6 c0 -5 -10 -11 -22 -14 -22 -6 -22 -6 -4 8 23 17 26 18 26 6z
m-922 -105 c3 -13 -1 -17 -14 -14 -11 2 -20 11 -22 22 -3 13 1 17 14 14 11 -2
20 -11 22 -22z m19 -239 c24 -25 25 -28 6 -18 -21 11 -73 90 -101 154 -24 56
-10 40 28 -32 21 -41 52 -87 67 -104z m368 101 c-8 -49 -26 -89 -21 -48 5 38
18 90 23 90 3 0 2 -19 -2 -42z m560 -8 c-3 -5 -11 -10 -16 -10 -6 0 -7 5 -4
10 3 6 11 10 16 10 6 0 7 -4 4 -10z m-635 -80 c0 -12 -40 -34 -47 -26 -9 8 17
36 33 36 8 0 14 -4 14 -10z m-107 -56 c20 -4 37 -12 37 -19 0 -6 9 -20 20 -30
11 -10 25 -33 32 -51 7 -19 16 -34 20 -34 4 0 8 -7 8 -15 0 -8 5 -15 10 -15 6
0 10 -7 10 -15 0 -8 4 -15 9 -15 5 0 12 -11 15 -25 4 -17 11 -23 19 -18 9 5 9
3 1 -8 -8 -10 -8 -22 2 -44 7 -16 13 -26 14 -21 0 6 7 1 16 -10 11 -13 14 -14
11 -4 -3 10 2 16 12 17 12 1 16 -6 15 -25 -2 -36 -2 -36 -19 -22 -9 7 -16 11
-18 9 -21 -38 -23 -47 -15 -69 9 -24 10 -24 23 -7 11 16 17 17 35 7 13 -7 20
-8 16 -2 -3 5 1 12 9 16 8 3 15 1 15 -5 0 -6 7 -17 15 -25 8 -9 15 -20 15 -26
0 -6 -6 -6 -15 2 -12 10 -15 10 -15 -1 0 -8 15 -25 33 -38 l32 -23 -37 5 c-52
8 -73 -26 -44 -72 6 -10 5 -12 -2 -7 -8 5 -10 2 -6 -8 3 -9 10 -16 15 -16 4 0
6 -7 3 -15 -4 -8 -1 -15 5 -15 15 0 61 -75 61 -99 0 -11 6 -21 13 -24 6 -2 8
-8 4 -13 -4 -5 -11 -4 -15 1 -4 6 -24 22 -44 37 -33 25 -54 60 -96 158 -6 14
-11 18 -11 10 -1 -8 10 -39 24 -67 l24 -53 -25 0 c-31 0 -44 31 -51 125 -5 68
-19 125 -32 125 -25 -1 -66 -87 -63 -131 1 -16 -2 -29 -8 -29 -5 0 -10 5 -10
11 0 5 -4 8 -9 4 -5 -3 -12 -1 -16 5 -10 15 -28 12 -22 -4 3 -8 0 -20 -8 -26
-12 -10 -14 -3 -12 42 2 46 5 53 24 56 12 2 40 20 61 41 22 21 46 41 53 43 11
4 10 13 -8 44 -12 22 -44 86 -72 143 -28 57 -69 132 -91 168 -52 81 -48 90 33
77z m-127 -105 c24 -26 25 -30 7 -20 -13 6 -27 20 -33 31 -15 28 -8 25 26 -11z
m42 13 c6 -18 -15 -14 -22 4 -4 10 -1 14 6 12 6 -2 14 -10 16 -16z m492 -682
c0 -5 -5 -10 -11 -10 -5 0 -7 5 -4 10 3 6 8 10 11 10 2 0 4 -4 4 -10z m-523
-692 c-3 -8 -6 -5 -6 6 -1 11 2 17 5 13 3 -3 4 -12 1 -19z m-10 -55 c-3 -10
-5 -4 -5 12 0 17 2 24 5 18 2 -7 2 -21 0 -30z m-10 -55 c-3 -7 -5 -2 -5 12 0
14 2 19 5 13 2 -7 2 -19 0 -25z m-21 -139 c-9 -63 -17 -127 -20 -144 -2 -16
-2 6 1 50 4 85 23 218 30 211 2 -2 -3 -55 -11 -117z m-29 -276 c-2 -16 -4 -3
-4 27 0 30 2 43 4 28 2 -16 2 -40 0 -55z m-10 -110 c-3 -10 -5 -2 -5 17 0 19
2 27 5 18 2 -10 2 -26 0 -35z"/>
<path d="M1900 4025 c13 -14 26 -25 28 -25 3 0 -5 11 -18 25 -13 14 -26 25
-28 25 -3 0 5 -11 18 -25z"/>
<path d="M1930 3986 c0 -2 8 -10 18 -17 15 -13 16 -12 3 4 -13 16 -21 21 -21
13z"/>
<path d="M1970 3915 c9 -40 37 -78 52 -69 9 6 -27 78 -48 95 -9 7 -10 1 -4
-26z"/>
<path d="M306 3535 c-3 -8 -1 -15 4 -15 13 0 22 18 11 24 -5 3 -11 -1 -15 -9z"/>
<path d="M257 3329 c4 -13 8 -18 11 -10 2 7 -1 18 -6 23 -8 8 -9 4 -5 -13z"/>
<path d="M1060 2350 c0 -13 20 -13 40 0 12 8 9 10 -12 10 -16 0 -28 -4 -28
-10z"/>
<path d="M1195 2249 c-16 -10 -26 -19 -21 -19 5 0 3 -6 -3 -14 -14 -17 0 -29
23 -20 19 7 21 24 4 24 -8 0 -9 3 -3 8 12 8 39 42 34 41 -2 0 -17 -9 -34 -20z"/>
<path d="M1265 2131 c-20 -8 -20 -8 1 -15 23 -7 54 1 54 15 0 11 -27 11 -55 0z"/>
<path d="M1270 1865 c0 -8 4 -15 9 -15 5 0 11 7 15 15 3 9 0 15 -9 15 -8 0
-15 -7 -15 -15z"/>
<path d="M1504 1816 c-10 -8 -17 -17 -14 -19 3 -3 16 3 29 14 27 22 15 26 -15
5z"/>
<path d="M623 2829 c10 -6 29 -9 44 -7 16 2 28 -3 31 -11 3 -9 0 -11 -8 -6 -8
5 -11 0 -8 -16 2 -17 8 -23 22 -21 13 3 17 -1 13 -12 -8 -20 8 -29 38 -22 20
5 24 12 22 36 -1 17 -6 30 -11 30 -5 0 -6 3 -3 7 4 3 2 12 -4 20 -8 9 -35 13
-83 13 -54 -1 -67 -3 -53 -11z"/>
<path d="M550 2732 c0 -5 7 -9 15 -9 8 0 15 4 15 9 0 4 -7 8 -15 8 -8 0 -15
-4 -15 -8z"/>
</g>
</svg>
